<svg width="22" height="22" viewBox="0 0 22 22" fill="none" xmlns="http://www.w3.org/2000/svg">
<path d="M20.1388 16.8022C20.1388 17.1322 20.0655 17.4713 19.9097 17.8013C19.7538 18.1313 19.5522 18.443 19.2863 18.7363C18.8372 19.2313 18.3422 19.5888 17.783 19.818C17.233 20.0472 16.6372 20.1663 15.9955 20.1663C15.0605 20.1663 14.0613 19.9463 13.0072 19.4972C11.953 19.048 10.8988 18.443 9.85384 17.6822C8.79967 16.9122 7.80051 16.0597 6.84717 15.1155C5.90301 14.1622 5.05051 13.163 4.28967 12.118C3.53801 11.073 2.93301 10.028 2.49301 8.99217C2.05301 7.94717 1.83301 6.94801 1.83301 5.99467C1.83301 5.37134 1.94301 4.77551 2.16301 4.22551C2.38301 3.66634 2.73134 3.15301 3.21717 2.69467C3.80384 2.11717 4.44551 1.83301 5.12384 1.83301C5.38051 1.83301 5.63717 1.88801 5.86634 1.99801C6.10467 2.10801 6.31551 2.27301 6.48051 2.51134L8.60717 5.50884C8.77217 5.73801 8.89134 5.94884 8.97384 6.15051C9.05634 6.34301 9.10217 6.53551 9.10217 6.70967C9.10217 6.92967 9.03801 7.14967 8.90967 7.36051C8.79051 7.57134 8.61634 7.79134 8.39634 8.01134L7.69967 8.73551C7.59884 8.83634 7.55301 8.95551 7.55301 9.10217C7.55301 9.17551 7.56217 9.23967 7.58051 9.31301C7.60801 9.38634 7.63551 9.44134 7.65384 9.49634C7.81884 9.79884 8.10301 10.193 8.50634 10.6697C8.91884 11.1463 9.35884 11.6322 9.83551 12.118C10.3305 12.6038 10.8072 13.053 11.293 13.4655C11.7697 13.8688 12.1638 14.1438 12.4755 14.3088C12.5213 14.3272 12.5763 14.3547 12.6405 14.3822C12.7138 14.4097 12.7872 14.4188 12.8697 14.4188C13.0255 14.4188 13.1447 14.3638 13.2455 14.263L13.9422 13.5755C14.1713 13.3463 14.3913 13.1722 14.6022 13.0622C14.813 12.9338 15.0238 12.8697 15.253 12.8697C15.4272 12.8697 15.6105 12.9063 15.8122 12.9888C16.0138 13.0713 16.2247 13.1905 16.4538 13.3463L19.488 15.5005C19.7263 15.6655 19.8913 15.858 19.9922 16.0872C20.0838 16.3163 20.1388 16.5455 20.1388 16.8022Z" stroke="#FCCA03" stroke-width="1.5" stroke-miterlimit="10"/>
<path d="M18.3326 3.66602H13.9326M18.3326 3.66602V8.06602V3.66602Z" stroke="#FCCA03" stroke-width="1.5" stroke-linecap="round" stroke-linejoin="round"/>
</svg>
