<svg width="40" height="40" viewBox="0 0 40 40" fill="none" xmlns="http://www.w3.org/2000/svg">
<path d="M36.6173 30.5499C36.6173 31.1499 36.484 31.7666 36.2007 32.3666C35.9173 32.9666 35.5507 33.5333 35.0673 34.0666C34.2507 34.9666 33.3507 35.6166 32.334 36.0333C31.334 36.4499 30.2507 36.6666 29.084 36.6666C27.384 36.6666 25.5673 36.2666 23.6507 35.4499C21.734 34.6333 19.8173 33.5333 17.9173 32.1499C16.0007 30.7499 14.184 29.1999 12.4507 27.4833C10.734 25.7499 9.18398 23.9333 7.80065 22.0333C6.43398 20.1333 5.33398 18.2333 4.53398 16.3499C3.73398 14.4499 3.33398 12.6333 3.33398 10.8999C3.33398 9.76659 3.53398 8.68325 3.93398 7.68325C4.33398 6.66659 4.96732 5.73325 5.85065 4.89992C6.91732 3.84992 8.08398 3.33325 9.31732 3.33325C9.78398 3.33325 10.2507 3.43325 10.6673 3.63325C11.1007 3.83325 11.484 4.13325 11.784 4.56659L15.6507 10.0166C15.9507 10.4333 16.1673 10.8166 16.3173 11.1833C16.4673 11.5333 16.5507 11.8833 16.5507 12.1999C16.5507 12.5999 16.434 12.9999 16.2007 13.3833C15.984 13.7666 15.6673 14.1666 15.2673 14.5666L14.0007 15.8833C13.8173 16.0666 13.734 16.2833 13.734 16.5499C13.734 16.6833 13.7507 16.7999 13.784 16.9333C13.834 17.0666 13.884 17.1666 13.9173 17.2666C14.2173 17.8166 14.734 18.5333 15.4673 19.3999C16.2173 20.2666 17.0173 21.1499 17.884 22.0333C18.784 22.9166 19.6507 23.7333 20.534 24.4833C21.4007 25.2166 22.1173 25.7166 22.684 26.0166C22.7673 26.0499 22.8673 26.0999 22.984 26.1499C23.1173 26.1999 23.2507 26.2166 23.4007 26.2166C23.684 26.2166 23.9007 26.1166 24.084 25.9333L25.3507 24.6833C25.7673 24.2666 26.1673 23.9499 26.5507 23.7499C26.934 23.5166 27.3173 23.3999 27.734 23.3999C28.0507 23.3999 28.384 23.4666 28.7507 23.6166C29.1173 23.7666 29.5007 23.9833 29.9173 24.2666L35.434 28.1833C35.8673 28.4833 36.1673 28.8333 36.3507 29.2499C36.5173 29.6666 36.6173 30.0833 36.6173 30.5499Z" stroke="white" stroke-width="1.5" stroke-miterlimit="10"/>
<path d="M30.8333 14.9998C30.8333 13.9998 30.05 12.4665 28.8833 11.2165C27.8167 10.0665 26.4 9.1665 25 9.1665" stroke="white" stroke-width="1.5" stroke-linecap="round" stroke-linejoin="round"/>
<path d="M36.6667 14.9999C36.6667 8.54992 31.45 3.33325 25 3.33325" stroke="white" stroke-width="1.5" stroke-linecap="round" stroke-linejoin="round"/>
</svg>
