<svg width="40" height="40" viewBox="0 0 40 40" fill="none" xmlns="http://www.w3.org/2000/svg">
<g clip-path="url(#clip0_1268_156)">
<path d="M27.4326 22.1706C27.4243 22.1844 27.4146 22.1997 27.4061 22.2137L29.8474 20.2449C30.4959 18.8159 30.8632 17.2755 30.9292 15.7076C30.9338 15.6804 30.9366 15.6528 30.9376 15.6252V6.25025H32.5001C32.6161 6.25027 32.7299 6.21795 32.8287 6.15693C32.9274 6.09591 33.0072 6.00859 33.0591 5.90476C33.1111 5.80093 33.133 5.6847 33.1226 5.56909C33.1122 5.45347 33.0697 5.34305 33.0001 5.25019L29.2501 0.250227C29.1921 0.172869 29.1169 0.110032 29.0305 0.066662C28.944 0.0232916 28.8487 0.000571368 28.752 0.000289597C28.6549 -0.00275043 28.5585 0.0181831 28.4714 0.0612404C28.3842 0.104298 28.3091 0.168153 28.2525 0.247165L24.5025 5.17968C24.432 5.27235 24.3888 5.38286 24.3778 5.49875C24.3668 5.61464 24.3884 5.73131 24.4401 5.8356C24.4918 5.93989 24.5717 6.02765 24.6706 6.089C24.7695 6.15035 24.8836 6.18284 25.0001 6.18281H26.5481V11.8752C26.5481 12.041 26.6139 12.1999 26.7311 12.3172C26.8483 12.4344 27.0073 12.5002 27.1731 12.5002C27.3388 12.5002 27.4978 12.4344 27.615 12.3172C27.7322 12.1999 27.7981 12.041 27.7981 11.8752V5.55781C27.798 5.39205 27.7322 5.23308 27.615 5.11588C27.4978 4.99867 27.3388 4.93282 27.1731 4.93281H26.2603L28.7467 1.66256L31.2501 5.00025H30.3126C30.1468 5.00026 29.9878 5.06611 29.8706 5.18332C29.7534 5.30053 29.6876 5.45949 29.6876 5.62525V14.8787L29.6728 14.861C29.6818 15.0461 29.6876 15.2321 29.6876 15.4195C29.6876 17.0012 29.2586 18.647 28.3765 20.4509C28.1084 20.9987 27.7996 21.5611 27.4326 22.1706Z" fill="#FCCA03"/>
<path d="M22.695 9.01807L22.0796 9.51032C21.7733 9.35011 21.4533 9.21754 21.1234 9.1142L21.0364 8.33112C21.0112 8.10255 20.9025 7.89134 20.7311 7.73798C20.5598 7.58462 20.3378 7.49992 20.1079 7.50012H18.6421C18.4122 7.49992 18.1902 7.58462 18.0189 7.73798C17.8475 7.89134 17.7388 8.10255 17.7136 8.33112L17.6267 9.1142C17.2968 9.21762 16.9768 9.35019 16.6704 9.51032L16.0547 9.01776C15.8752 8.87415 15.649 8.8018 15.4195 8.81459C15.19 8.82737 14.9732 8.92438 14.8108 9.08704L13.7744 10.1237C13.6117 10.2862 13.5146 10.503 13.5019 10.7326C13.4892 10.9623 13.5617 11.1885 13.7056 11.3679L14.1978 11.9828C14.0376 12.2893 13.905 12.6093 13.8016 12.9393L13.0185 13.0265C12.79 13.0516 12.5788 13.1602 12.4254 13.3315C12.272 13.5028 12.1873 13.7247 12.1875 13.9546V15.4206C12.1873 15.6505 12.272 15.8724 12.4254 16.0437C12.5788 16.2149 12.79 16.3236 13.0185 16.3486L13.8016 16.4359C13.905 16.7659 14.0376 17.0859 14.1978 17.3924L13.7056 18.0073C13.5618 18.1867 13.4892 18.4129 13.5019 18.6425C13.5146 18.8721 13.6115 19.089 13.7743 19.2515L14.8109 20.2881C14.9734 20.4509 15.1902 20.548 15.4198 20.5607C15.6494 20.5734 15.8756 20.5009 16.055 20.3571L16.6704 19.8649C16.9767 20.0251 17.2968 20.1576 17.6267 20.261L17.7136 21.0441C17.7388 21.2726 17.8476 21.4838 18.0189 21.6372C18.1902 21.7905 18.4122 21.8752 18.6421 21.8751H20.1079C20.3378 21.8752 20.5598 21.7905 20.7311 21.6372C20.9025 21.4838 21.0112 21.2726 21.0364 21.0441L21.1234 20.261C21.4532 20.1575 21.7733 20.025 22.0796 19.8649L22.6953 20.3574C22.8748 20.5011 23.101 20.5735 23.3305 20.5607C23.5601 20.5479 23.7768 20.4509 23.9392 20.2881L24.9756 19.2515C25.1384 19.089 25.2354 18.8722 25.2481 18.6425C25.2608 18.4129 25.1883 18.1867 25.0444 18.0073L24.5522 17.3923C24.7124 17.0859 24.845 16.7659 24.9484 16.4359L25.7315 16.3486C25.96 16.3235 26.1712 16.2149 26.3246 16.0437C26.478 15.8724 26.5627 15.6505 26.5625 15.4206V13.9546C26.5627 13.7247 26.478 13.5028 26.3246 13.3315C26.1713 13.1602 25.96 13.0516 25.7315 13.0265L24.9484 12.9393C24.845 12.6093 24.7124 12.2893 24.5522 11.9828L25.0444 11.3679C25.1883 11.1885 25.2608 10.9623 25.2481 10.7327C25.2355 10.5031 25.1385 10.2862 24.9757 10.1237L23.9391 9.08705C23.7767 8.92422 23.5599 8.82712 23.3302 8.81439C23.1006 8.80165 22.8744 8.87419 22.695 9.01807ZM24.5996 14.1581L25.3125 14.2375V15.1377L24.5987 15.2171C24.4123 15.238 24.2366 15.3146 24.0945 15.437C23.9524 15.5594 23.8505 15.7219 23.8022 15.9031C23.7013 16.2719 23.5543 16.6266 23.3649 16.9587C23.2709 17.1212 23.2282 17.3083 23.2423 17.4955C23.2564 17.6827 23.3266 17.8612 23.4438 18.0079L23.8918 18.5676L23.255 19.2044L22.6955 18.7568C22.549 18.6391 22.3703 18.5685 22.183 18.5544C21.9956 18.5403 21.8084 18.5833 21.646 18.6777C21.3139 18.8671 20.9593 19.0139 20.5905 19.1147C20.4091 19.163 20.2465 19.2649 20.1241 19.4073C20.0016 19.5496 19.9251 19.7256 19.9045 19.9122L19.8253 20.6251H18.9247L18.8455 19.9128C18.825 19.726 18.7485 19.5499 18.626 19.4074C18.5035 19.265 18.3408 19.163 18.1592 19.1148C17.7909 19.014 17.4367 18.8674 17.105 18.6784C16.9426 18.5836 16.7553 18.5404 16.5679 18.5543C16.3804 18.5683 16.2016 18.6388 16.055 18.7565L15.495 19.2045L14.8583 18.5676L15.3069 18.007C15.4239 17.8603 15.4939 17.6818 15.5078 17.4947C15.5218 17.3077 15.479 17.1208 15.385 16.9584C15.1957 16.6265 15.0489 16.2722 14.948 15.9037C14.8997 15.7222 14.7977 15.5596 14.6554 15.4371C14.5131 15.3145 14.3371 15.2379 14.1504 15.2171L13.4375 15.1377V14.2375L14.1513 14.1581C14.3377 14.1372 14.5135 14.0605 14.6556 13.9381C14.7977 13.8157 14.8995 13.6533 14.9478 13.4721C15.0488 13.1033 15.1957 12.7486 15.3851 12.4165C15.4791 12.254 15.5218 12.0669 15.5077 11.8797C15.4936 11.6925 15.4234 11.514 15.3063 11.3673L14.8583 10.8076L15.495 10.1707L16.0545 10.6184C16.201 10.7361 16.3797 10.8067 16.567 10.8208C16.7544 10.8349 16.9416 10.7919 17.104 10.6975C17.4361 10.5081 17.7908 10.3613 18.1595 10.2604C18.3409 10.2122 18.5035 10.1102 18.6259 9.96793C18.7484 9.82562 18.8249 9.64962 18.8455 9.46304L18.9247 8.75014H19.8253L19.9045 9.46243C19.925 9.64917 20.0015 9.82533 20.124 9.96776C20.2465 10.1102 20.4092 10.2122 20.5908 10.2604C20.9591 10.3612 21.3133 10.5078 21.6451 10.6968C21.8075 10.7913 21.9947 10.8345 22.1821 10.8205C22.3696 10.8066 22.5484 10.7362 22.695 10.6187L23.255 10.1707L23.8918 10.8076L23.4432 11.3682C23.3262 11.5148 23.2561 11.6934 23.2422 11.8804C23.2283 12.0675 23.2711 12.2544 23.365 12.4168C23.5543 12.7486 23.7011 13.103 23.802 13.4715C23.8503 13.6529 23.9523 13.8156 24.0946 13.9381C24.237 14.0607 24.413 14.1373 24.5996 14.1581Z" fill="#FCCA03"/>
<path d="M19.375 11.5626C18.7569 11.5626 18.1527 11.7459 17.6388 12.0893C17.1249 12.4327 16.7244 12.9207 16.4879 13.4917C16.2514 14.0628 16.1895 14.6911 16.31 15.2973C16.4306 15.9035 16.7283 16.4603 17.1653 16.8973C17.6023 17.3343 18.1591 17.632 18.7653 17.7525C19.3715 17.8731 19.9999 17.8112 20.5709 17.5747C21.1419 17.3382 21.6299 16.9376 21.9733 16.4237C22.3167 15.9098 22.5 15.3057 22.5 14.6876C22.499 13.8591 22.1695 13.0648 21.5836 12.479C20.9978 11.8931 20.2035 11.5636 19.375 11.5626ZM19.375 16.5626C19.0041 16.5626 18.6416 16.4526 18.3333 16.2466C18.0249 16.0406 17.7846 15.7477 17.6427 15.4051C17.5008 15.0625 17.4637 14.6855 17.536 14.3218C17.6084 13.9581 17.787 13.624 18.0492 13.3618C18.3114 13.0996 18.6455 12.921 19.0092 12.8486C19.3729 12.7763 19.7499 12.8134 20.0925 12.9553C20.4351 13.0973 20.7279 13.3376 20.934 13.6459C21.14 13.9543 21.25 14.3168 21.25 14.6876C21.2494 15.1847 21.0517 15.6613 20.7002 16.0128C20.3487 16.3643 19.8721 16.562 19.375 16.5626Z" fill="#FCCA03"/>
<path d="M35.3134 17.5H34.0634C33.923 17.4996 33.7867 17.5465 33.6764 17.6333C33.5661 17.72 33.4883 17.8414 33.4555 17.9778C33.4228 18.1143 33.4371 18.2578 33.496 18.3851C33.555 18.5124 33.6552 18.6161 33.7805 18.6794L25.0457 25.7235L22.3178 22.9956C22.2127 22.8904 22.0736 22.8261 21.9254 22.8143C21.7772 22.8025 21.6297 22.8439 21.5093 22.9312L12.9084 29.1595L11.0963 27.0883C10.9964 26.9741 10.8585 26.9001 10.7081 26.8802C10.5578 26.8603 10.4053 26.8957 10.2792 26.9799L4.34167 30.7299C4.27323 30.7754 4.21443 30.8339 4.16863 30.9021C4.12282 30.9703 4.09092 31.0469 4.07474 31.1274C4.05856 31.208 4.05842 31.2909 4.07433 31.3715C4.09024 31.4521 4.12189 31.5288 4.16747 31.5972C4.21304 31.6655 4.27165 31.7242 4.33994 31.7699C4.40822 31.8156 4.48485 31.8474 4.56543 31.8634C4.64601 31.8795 4.72896 31.8795 4.80954 31.8634C4.89012 31.8474 4.96675 31.8156 5.03503 31.7699L10.5164 28.3239L12.3429 30.4116C12.4455 30.5289 12.5882 30.6037 12.7431 30.6212C12.8979 30.6387 13.0537 30.5977 13.1799 30.5062L21.8107 24.2562L24.559 27.0043C24.6679 27.1135 24.8135 27.1785 24.9675 27.1867C25.1215 27.1949 25.2732 27.1458 25.3932 27.0489L34.7114 19.5342C34.7498 19.681 34.8404 19.8088 34.9662 19.8935C35.0921 19.9783 35.2445 20.0143 35.395 19.9948C35.5455 19.9753 35.6836 19.9016 35.7837 19.7875C35.8837 19.6734 35.9387 19.5267 35.9384 19.375V18.125C35.9383 17.9592 35.8725 17.8003 35.7553 17.6831C35.6381 17.5659 35.4791 17.5 35.3134 17.5Z" fill="#FCCA03"/>
<path d="M22.6814 31.2505H16.07C15.9661 30.8944 15.8554 30.5428 15.7335 30.2001L14.6758 30.966C14.789 31.3061 14.8942 31.6514 14.9865 32.0036C15.1577 33.2299 15.2524 34.4657 15.27 35.7038C15.2828 36.0343 15.3831 36.3554 15.5606 36.6344C15.7382 36.9134 15.9867 37.1402 16.2806 37.2917C16.3806 38.0414 16.7494 38.7293 17.3185 39.2275C17.8876 39.7257 18.6182 40.0004 19.3745 40.0004C20.1309 40.0004 20.8615 39.7258 21.4306 39.2276C21.9997 38.7293 22.3685 38.0414 22.4685 37.2917C22.7625 37.1403 23.0109 36.9136 23.1885 36.6347C23.3661 36.3559 23.4665 36.0348 23.4793 35.7045C23.4969 34.4661 23.5917 33.2301 23.7632 32.0036C24.0961 30.7692 24.5524 29.5714 25.1252 28.4284C24.6894 28.459 24.2568 28.3354 23.903 28.0791C23.409 29.1007 23.0004 30.1614 22.6814 31.2505ZM19.3746 38.7504C18.9872 38.7497 18.6096 38.6292 18.2935 38.4054C17.9774 38.1816 17.7383 37.8655 17.6089 37.5004H21.1402C21.0109 37.8655 20.7717 38.1816 20.4556 38.4054C20.1395 38.6292 19.7619 38.7497 19.3746 38.7504ZM22.2302 35.6532C22.2238 35.8142 22.1551 35.9664 22.0386 36.0778C21.9222 36.1892 21.7671 36.251 21.606 36.2504H17.1433C16.9821 36.2511 16.827 36.1892 16.7106 36.0778C16.5942 35.9664 16.5255 35.8142 16.519 35.6532C16.5098 35.4258 16.5002 35.2095 16.4905 35.0004H22.2589C22.2491 35.2095 22.2395 35.4258 22.2302 35.6532ZM22.3269 33.7504H16.4225C16.3907 33.2526 16.3569 32.8359 16.3212 32.5004H22.4283C22.3926 32.8355 22.3588 33.2522 22.3269 33.7504Z" fill="#FCCA03"/>
<path d="M19.1667 3.43775C12.906 3.43775 7.8125 8.81277 7.8125 15.4195C7.8125 17.1947 8.28293 19.0202 9.25094 21.0008C9.53613 21.5831 9.86205 22.1769 10.2473 22.8163C10.4993 23.2341 10.8061 23.704 11.131 24.2021C11.7384 25.1328 12.4521 26.2288 13.1231 27.4603L14.1445 26.7207C13.4766 25.511 12.7773 24.4374 12.1779 23.5188C11.8591 23.0305 11.5582 22.5694 11.3178 22.1709C10.9515 21.5629 10.6427 21.0005 10.3737 20.4515C9.49143 18.6461 9.0625 17 9.0625 15.4195C9.0625 9.50185 13.5953 4.68772 19.1667 4.68772H19.5833C20.7993 4.68768 22.0041 4.9203 23.1326 5.37302C23.1671 5.02763 23.2969 4.69863 23.5077 4.42283L23.6501 4.23553C22.3589 3.70889 20.9777 3.43795 19.5833 3.43774L19.1667 3.43775Z" fill="#FCCA03"/>
</g>
<defs>
<clipPath id="clip0_1268_156">
<rect width="40" height="40" fill="white"/>
</clipPath>
</defs>
</svg>
