<svg width="40" height="40" viewBox="0 0 40 40" fill="none" xmlns="http://www.w3.org/2000/svg">
<g clip-path="url(#clip0_1268_168)">
<path d="M31.3107 16.7949C30.5535 16.7949 30.5522 17.966 31.3095 17.9674L34.1284 17.9729C34.8656 17.9729 34.8677 16.8019 34.1307 16.8005L31.3118 16.7949C31.3115 16.7949 31.3111 16.7949 31.3107 16.7949Z" fill="#FCCA03"/>
<path d="M29.4731 10.9886C29.5721 10.9886 29.6724 10.9636 29.7644 10.9108L32.2084 9.50867C32.8659 9.13145 32.2825 8.11468 31.6249 8.49159L29.1809 9.89371C28.7102 10.1639 28.8685 10.9886 29.4731 10.9886Z" fill="#FCCA03"/>
<path d="M24.0886 5.78397C24.385 5.93842 24.6521 5.86768 24.8901 5.57167L26.3044 3.1377C26.6851 2.48229 25.6714 1.89308 25.2906 2.54857L23.8763 4.98255C23.7137 5.26253 23.8087 5.62131 24.0886 5.78397Z" fill="#FCCA03"/>
<path d="M17.4054 3.96586C17.7015 3.96586 17.9922 3.6704 17.9928 3.3808L17.9984 0.567017C17.9999 -0.168826 16.8275 -0.208143 16.8259 0.564751L16.8203 3.37853C16.8197 3.70221 17.0816 3.96531 17.4054 3.96586Z" fill="#FCCA03"/>
<path d="M9.90946 5.50961C10.3118 6.20864 11.2875 5.55338 10.9255 4.92462L9.52091 2.48502C9.14275 1.82804 8.1266 2.41319 8.50484 3.07L9.90946 5.50961Z" fill="#FCCA03"/>
<path d="M5.57417 9.79141L3.13574 8.37967C2.47994 7.99956 1.89229 9.01453 2.54825 9.39425L4.98668 10.806C5.61411 11.1695 6.24772 10.1814 5.57417 9.79141Z" fill="#FCCA03"/>
<path d="M3.37946 17.847C4.13657 17.847 4.1379 16.6762 3.38064 16.6746L0.561778 16.6689C-0.175317 16.6689 -0.177583 17.8399 0.559433 17.8414L3.37829 17.847H3.37946Z" fill="#FCCA03"/>
<path d="M4.93002 23.73L2.48596 25.132C1.81078 25.5194 2.44063 26.5097 3.06939 26.1491L5.51344 24.7471C6.17089 24.3698 5.58754 23.3528 4.93002 23.73Z" fill="#FCCA03"/>
<path d="M10.6046 28.8568C10.3248 28.6941 9.96583 28.7892 9.80317 29.0692L8.38886 31.5033C8.02406 32.131 8.99792 32.7889 9.40266 32.0922L10.817 29.6582C10.9796 29.3783 10.8846 29.0195 10.6046 28.8568Z" fill="#FCCA03"/>
<path d="M21.411 10.4837C21.3077 10.2972 21.1113 10.1816 20.8982 10.1816H16.6824C16.4573 10.1816 16.2521 10.3105 16.1543 10.5131L12.5044 18.0804C12.3704 18.5553 12.5464 18.8356 13.0324 18.9213H15.8456L13.9836 23.8772C13.6664 24.7212 14.809 25.4433 15.4148 24.6993L22.1168 16.4677C22.3681 15.9575 22.2165 15.6386 21.6622 15.5114H18.6233L21.3953 11.0787C21.5082 10.898 21.5143 10.6702 21.411 10.4837ZM17.0682 15.7868C16.8815 16.281 17.0472 16.58 17.5652 16.6839H20.4288L15.805 22.3629L17.2409 18.5412C17.3347 18.0854 17.1518 17.8213 16.6921 17.7488H13.966L17.0505 11.354H19.8401L17.0682 15.7868Z" fill="#FCCA03"/>
<path d="M39.9428 21.0174C39.8466 20.8106 39.6392 20.6782 39.4111 20.6782H28.1449C28.6654 18.9654 28.7647 17.1236 28.4397 15.3638C28.0065 12.7756 26.6631 10.405 24.6565 8.68841C22.6259 6.95127 20.0329 5.99164 17.355 5.98633C17.3473 5.98633 17.3399 5.98633 17.3322 5.98633C14.9569 5.98633 12.6855 6.71584 10.7628 8.09654C10.1471 8.53864 10.831 9.49108 11.4467 9.0489C13.169 7.81218 15.2037 7.1588 17.3322 7.1588H17.3526C19.7521 7.16365 22.0753 8.02323 23.8943 9.57941C25.6931 11.1183 26.897 13.243 27.284 15.5619C27.5538 17.296 27.4867 19.006 26.9124 20.6783H24.0722C23.8995 20.6783 23.7355 20.7545 23.6242 20.8865L18.0802 27.4578C17.8363 27.4745 17.59 27.4824 17.3453 27.4831C14.6538 27.4778 12.114 26.3905 10.1936 24.4213C8.28537 22.4646 7.23741 19.9033 7.24281 17.2092C7.24734 14.9393 7.99006 12.7981 9.3907 11.0169C9.8593 10.4211 8.93766 9.6965 8.46906 10.2923C6.90482 12.2813 6.07534 14.6724 6.07034 17.2069C6.06439 20.2095 7.23061 23.0624 9.35427 25.24C11.4324 27.3707 14.1643 28.576 17.073 28.6517C15.8973 30.0455 14.7215 31.4391 13.5457 32.8327C13.2849 33.3447 13.4342 33.6661 13.9937 33.797H22.0192V36.272H19.973C18.8659 36.272 17.9651 37.1727 17.9651 38.2799V39.4144C17.9651 39.7382 18.2276 40.0006 18.5514 40.0006H26.5609C26.8847 40.0006 27.1471 39.7382 27.1471 39.4144V38.2799C27.1471 37.1728 26.2464 36.272 25.1392 36.272H23.1916V33.797H29.3325C29.5052 33.797 29.6692 33.7208 29.7805 33.5888L30.2157 33.0731C30.7045 32.4937 29.8084 31.7377 29.3195 32.3169L29.0601 32.6245H25.3337L27.7271 29.7876H31.4534L31.3176 29.9487C30.8289 30.528 31.7252 31.2843 32.2137 30.7047L39.8592 21.6425C40.0063 21.4681 40.0389 21.2243 39.9428 21.0174ZM25.9745 38.2798V38.8281H19.1375V38.2798C19.1375 37.8191 19.5123 37.4444 19.973 37.4444H25.1392C25.5998 37.4444 25.9745 37.8191 25.9745 38.2798ZM32.8892 21.8507L30.5685 24.6014H27.0632L29.3839 21.8507H32.8892ZM27.1823 28.615H23.677L26.074 25.7738H29.5793L27.1823 28.615ZM21.0348 25.7739H24.5401L22.1431 28.6151H18.6378L21.0348 25.7739ZM24.3447 21.8507H27.8499L25.5292 24.6014H22.0239L24.3447 21.8507ZM17.6487 29.7875H21.154L18.7606 32.6244H15.2553L17.6487 29.7875ZM23.7998 32.6244H20.2945L22.6879 29.7875H26.1932L23.7998 32.6244ZM31.1133 25.7739H34.8396L32.4426 28.6151H28.7163L31.1133 25.7739ZM35.8289 24.6014H32.1025L34.4232 21.8507H38.1496L35.8289 24.6014Z" fill="#FCCA03"/>
</g>
<defs>
<clipPath id="clip0_1268_168">
<rect width="40" height="40" fill="white"/>
</clipPath>
</defs>
</svg>
