<svg width="55" height="54" viewBox="0 0 55 54" fill="none" xmlns="http://www.w3.org/2000/svg">
<path d="M0 10.1V18.5C0 18.9 0.3 19.2 0.7 19.2H6.7C7.1 19.2 7.4 18.9 7.4 18.5V17H17.3V52.5H0.7C0.3 52.5 0 52.8 0 53.2C0 53.6 0.3 53.9 0.7 53.9H53.7C54.1 53.9 54.4 53.6 54.4 53.2V42.4C54.4 42 54.1 41.7 53.7 41.7H44C43.6 41.7 43.3 42 43.3 42.4V52.4H24V17H48.1V23.7H44C43.6 23.7 43.3 24 43.3 24.4V31.8C43.3 32.2 43.6 32.5 44 32.5H53.7C54.1 32.5 54.4 32.2 54.4 31.8V24.4C54.4 24 54.1 23.7 53.7 23.7H49.6V17H53.2C53.6 17 53.9 16.7 53.9 16.3V12.2C53.9 12.1 53.8 12.1 53.8 12.1C53.8 12.1 53.8 12 53.7 12C53.7 12 53.6 12 53.6 11.9C53.6 11.9 53.5 11.8 53.4 11.8L23.5 0.1H23.3L18 0C17.8 0 17.6 0.1 17.5 0.2L7.4 10.7V10.2C7.4 9.8 7.1 9.5 6.7 9.5H0.7C0.3 9.4 0 9.7 0 10.1ZM44.7 48.6H52.9V52.5H44.7V48.6ZM44.7 43.2H52.9V47.1H44.7V43.2ZM52.9 25.1V31H44.7V25.1H52.9ZM24 13.2H52.5V15.6H24V13.2ZM24 1.8L49.4 11.8H24V1.8ZM18.7 1.4H22.5V52.4H18.7V1.4ZM17.3 11.7H8.4L17.3 2.5V11.7ZM7.4 13.2H17.3V15.6H7.4V13.2ZM1.4 10.9H6V17.9H1.4V10.9Z" fill="#310875"/>
</svg>
