<svg width="70" height="49" viewBox="0 0 70 49" fill="none" xmlns="http://www.w3.org/2000/svg">
<g clip-path="url(#clip0_1671_319)">
<path d="M14.5875 41.4001C17.7875 41.4001 20.4875 38.8001 20.4875 35.5001C20.4875 32.3001 17.8875 29.6001 14.5875 29.6001C11.2875 29.6001 8.6875 32.2001 8.6875 35.5001C8.7875 38.8001 11.3875 41.4001 14.5875 41.4001ZM14.5875 31.1001C17.0875 31.1001 19.0875 33.1001 19.0875 35.6001C19.0875 38.1001 17.0875 40.1001 14.5875 40.1001C12.0875 40.1001 10.0875 38.1001 10.0875 35.6001C10.1875 33.1001 12.1875 31.1001 14.5875 31.1001Z" fill="#310875"/>
<path d="M56.1871 35.6001C53.9871 35.6001 52.2871 37.4001 52.2871 39.5001C52.2871 41.7001 54.0871 43.4001 56.1871 43.4001C58.2871 43.4001 60.0871 41.6001 60.0871 39.5001C60.0871 37.3001 58.3871 35.6001 56.1871 35.6001ZM56.1871 42.0001C54.7871 42.0001 53.6871 40.9001 53.6871 39.5001C53.6871 38.1001 54.7871 37.0001 56.1871 37.0001C57.5871 37.0001 58.6871 38.1001 58.6871 39.5001C58.6871 40.9001 57.5871 42.0001 56.1871 42.0001Z" fill="#310875"/>
<path d="M69.2867 26.8H67.3867C66.9867 26.8 66.6867 27.1 66.6867 27.5V29.3L65.8867 30.6H64.1867C64.1867 29.9 64.0867 29.2 63.9867 28.6C63.6867 26.4 62.6867 23.3 59.9867 21.1C57.7867 19.3 55.2867 18.9 52.9867 18.7L46.2867 18.2C46.2867 17.3 45.6867 16.6 44.9867 16.3V6.3C44.9867 5.6 45.5867 5 46.2867 5C46.6867 5 46.9867 4.7 46.9867 4.3C46.9867 3.9 46.6867 3.6 46.2867 3.6C44.7867 3.6 43.5867 4.8 43.5867 6.3V16.2C42.7867 16.4 42.1867 17.1 41.9867 17.9H41.3867C41.1867 11.6 37.4867 6 36.5867 4.8L37.2867 1C37.2867 0.8 37.2867 0.6 37.0867 0.4C36.8867 0.1 36.6867 0 36.4867 0H10.9867C9.48672 0 8.18672 1.2 8.18672 2.8C8.18672 4.2 9.28672 5.4 10.6867 5.5L9.18672 19.3C2.78672 20.4 0.186719 27.2 0.0867188 27.5C-0.0132812 27.8 -0.0132812 28 0.0867188 28.2C0.186719 28.4 0.386719 28.5 0.686719 28.5H3.68672C3.58672 29 3.68672 29.6 4.08672 30C3.78672 30.5 3.58672 31 3.38672 31.4H3.28672C2.48672 31.4 1.78672 32.1 1.78672 32.9V37.5C1.78672 38.3 2.48672 39 3.28672 39C3.48672 39.5 3.58672 40 3.88672 40.5L3.78672 40.6C3.18672 41.2 3.18672 42.2 3.78672 42.8L6.98672 46C7.58672 46.6 8.58672 46.6 9.18672 46C9.68672 46.3 10.1867 46.5 10.5867 46.7V47C10.5867 47.8 11.2867 48.5 12.0867 48.5H17.2867C18.0867 48.5 18.7867 47.8 18.7867 47V46.8C19.2867 46.6 19.7867 46.4 20.1867 46.1C20.7867 46.7 21.7867 46.6 22.3867 46.1L25.5867 42.9C26.1867 42.3 26.1867 41.3 25.5867 40.7L25.4867 40.6L26.0867 39.1C26.8867 39.1 27.5867 38.4 27.5867 37.6V33C27.5867 32.2 26.8867 31.5 26.0867 31.5H25.8867C25.6867 31 25.4867 30.5 25.1867 30.1C25.7867 29.5 25.7867 28.5 25.1867 27.9L21.9867 24.7C21.3867 24.1 20.3867 24.1 19.7867 24.7L19.6867 24.8L18.1867 24.2C18.1867 23.4 17.4867 22.7 16.6867 22.7H12.7867C11.9867 22.7 11.2867 23.4 11.2867 24.2C10.7867 24.4 10.2867 24.5 9.78672 24.8L9.68672 24.7C9.08672 24.1 8.08672 24.1 7.48672 24.7L4.98672 27.2H1.78672C2.68672 25.4 5.18672 21.4 9.68672 20.8H22.1867L26.8867 24.8L29.3867 26.9V42.2C29.3867 42.6 29.6867 42.9 30.0867 42.9H36.3867C36.7867 42.9 37.0867 42.6 37.0867 42.2V41.2H47.9867C48.1867 41.6 48.4867 41.9 48.8867 41.9C48.9867 42.1 48.9867 42.3 49.0867 42.5C48.8867 42.7 48.7867 43 48.7867 43.3C48.7867 43.6 48.8867 43.9 49.1867 44.2L51.1867 46.2C51.5867 46.6 52.2867 46.7 52.7867 46.3L53.3867 46.6C53.3867 47.2 53.9867 47.7 54.5867 47.7H57.7867C58.3867 47.7 58.9867 47.2 58.9867 46.6L59.5867 46.3C60.0867 46.6 60.6867 46.6 61.1867 46.2L63.1867 44.2C63.6867 43.7 63.6867 43 63.1867 42.5C63.2867 42.3 63.3867 42.1 63.3867 41.9C63.9867 41.8 64.3867 41.3 64.3867 40.7V37.9C64.3867 37.3 63.8867 36.7 63.2867 36.7V36.6H68.0867C68.2867 36.6 68.4867 36.5 68.6867 36.3L69.8867 34.6C69.9867 34.5 69.9867 34.3 69.9867 34.2V27.6C69.9867 27.1 69.6867 26.8 69.2867 26.8ZM8.28672 25.6H8.48672L8.98672 26.1C9.18672 26.3 9.48672 26.4 9.78672 26.2C10.4867 25.8 11.1867 25.6 11.9867 25.4C12.2867 25.3 12.4867 25 12.4867 24.7V24.2C12.4867 24.1 12.5867 24.1 12.5867 24.1H16.4867C16.5867 24.1 16.5867 24.2 16.5867 24.2V24.7C16.5867 25 16.7867 25.3 17.0867 25.4C17.8867 25.6 18.5867 25.9 19.2867 26.2C19.5867 26.3 19.8867 26.3 20.0867 26.1L20.5867 25.6H20.7867L23.9867 28.8V29L23.5867 29.4C23.3867 29.6 23.2867 30 23.4867 30.3C23.8867 31 24.1867 31.7 24.4867 32.4C24.5867 32.7 24.8867 32.9 25.1867 32.9H25.9867C26.0867 32.9 26.0867 33 26.0867 33V37.6C26.0867 37.7 25.9867 37.7 25.9867 37.7H25.4867C25.1867 37.7 24.8867 37.9 24.7867 38.2C24.5867 39 24.2867 39.7 23.9867 40.4C23.8867 40.7 23.8867 41 24.0867 41.2L24.5867 41.7V41.9L21.3867 45.1H21.1867L20.7867 44.7C20.5867 44.5 20.1867 44.4 19.8867 44.6C19.1867 45 18.4867 45.3 17.7867 45.6C17.4867 45.7 17.2867 46 17.2867 46.3V47C17.2867 47.1 17.1867 47.1 17.1867 47.1H11.9867C11.8867 47.1 11.8867 47 11.8867 47V46.3C11.8867 46 11.6867 45.7 11.3867 45.6C10.6867 45.4 9.98672 45 9.28672 44.6C9.18672 44.5 9.08672 44.5 8.88672 44.5C8.68672 44.5 8.48672 44.6 8.38672 44.7L7.98672 45.1H7.78672L4.58672 41.9V41.7L5.08672 41.2C5.28672 41 5.38672 40.6 5.18672 40.4C4.78672 39.7 4.58672 39 4.38672 38.2C4.28672 37.9 3.98672 37.7 3.68672 37.7H3.28672C3.18672 37.7 3.18672 37.6 3.18672 37.6V33C3.18672 32.9 3.28672 32.9 3.28672 32.9H3.98672C4.28672 32.9 4.58672 32.7 4.68672 32.4C4.88672 31.7 5.28672 31 5.68672 30.3C5.88672 30 5.78672 29.7 5.58672 29.4L5.08672 29V28.8L8.28672 25.6ZM43.2867 18.3C43.2867 17.9 43.6867 17.5 44.0867 17.5C44.4867 17.5 44.8867 17.9 44.8867 18.3V27.7C44.8867 28.1 44.4867 28.5 44.0867 28.5C43.6867 28.5 43.2867 28.1 43.2867 27.7V18.3ZM9.68672 2.8C9.68672 2.1 10.2867 1.4 11.0867 1.4H35.7867L35.2867 4.1H10.9867C10.2867 4.1 9.68672 3.5 9.68672 2.8ZM12.0867 5.5H15.2867V19.3H10.5867L12.0867 5.5ZM22.3867 19.3H16.6867V5.5H30.2867C31.1867 6.3 35.5867 10.5 35.6867 18L27.3867 23.3L22.8867 19.4C22.6867 19.4 22.5867 19.3 22.3867 19.3ZM63.0867 40.5H62.9867C62.6867 40.5 62.3867 40.7 62.2867 41C62.1867 41.5 61.9867 41.9 61.7867 42.3C61.6867 42.6 61.6867 42.9 61.8867 43.1L62.0867 43.3L60.3867 45H60.1867C59.9867 44.8 59.5867 44.7 59.2867 44.9C58.8867 45.1 58.4867 45.3 57.9867 45.5C57.6867 45.6 57.4867 45.9 57.4867 46.2V46.4H54.6867V46.2C54.6867 45.9 54.4867 45.6 54.1867 45.5C53.7867 45.4 53.2867 45.2 52.8867 44.9C52.5867 44.7 52.2867 44.8 51.9867 45L51.8867 45.1L50.1867 43.4L50.3867 43.2C50.5867 43 50.6867 42.6 50.4867 42.4C50.2867 42 50.0867 41.6 49.9867 41.1C49.8867 40.8 49.5867 40.6 49.2867 40.6H49.1867V38.2H49.3867C49.6867 38.2 49.9867 38 50.0867 37.7C50.1867 37.3 50.3867 36.8 50.6867 36.4C50.8867 36.1 50.7867 35.8 50.5867 35.5L50.4867 35.4L52.1867 33.7L52.3867 33.9C52.5867 34.1 52.9867 34.2 53.1867 34C53.5867 33.8 53.9867 33.6 54.4867 33.5C54.7867 33.4 54.9867 33.1 54.9867 32.8V32.7H56.9867V32.8C56.9867 33.1 57.1867 33.4 57.4867 33.5C57.9867 33.6 58.3867 33.8 58.7867 34C59.0867 34.1 59.3867 34.1 59.5867 33.9L59.7867 33.7L61.4867 35.4L61.3867 35.5C61.1867 35.7 61.0867 36.1 61.2867 36.4C61.4867 36.8 61.6867 37.2 61.8867 37.7C61.9867 38 62.2867 38.2 62.5867 38.2H62.7867V40.5H63.0867ZM68.5867 33.9L67.6867 35.1H63.1867C63.1867 34.9 62.9867 34.6 62.8867 34.5L60.8867 32.5C60.4867 32.1 59.6867 32 59.1867 32.5C58.9867 32.4 58.7867 32.3 58.5867 32.3C58.4867 31.7 57.9867 31.3 57.3867 31.3H54.9867C54.3867 31.3 53.8867 31.7 53.7867 32.3C53.5867 32.4 53.3867 32.4 53.1867 32.5C52.6867 32.1 51.9867 32.1 51.4867 32.5L49.4867 34.5C49.0867 34.9 48.9867 35.6 49.3867 36.1L49.0867 36.7C48.4867 36.7 47.9867 37.3 47.9867 37.9V39.8H36.3867C35.9867 39.8 35.6867 40.1 35.6867 40.5V41.5H30.7867V26.5C30.7867 26.3 30.6867 26.1 30.5867 26L28.5867 24.3L36.8867 19L36.9867 18.9L37.0867 18.8L37.1867 18.7C37.1867 18.7 37.1867 18.6 37.2867 18.6V18.4C37.2867 11.7 34.2867 7.5 32.4867 5.5H35.5867C36.4867 6.8 40.1867 12.4 40.0867 18.4C40.0867 18.8 40.3867 19.1 40.7867 19.1L42.0867 19.2V27.6C42.0867 28.8 43.0867 29.8 44.2867 29.8C45.4867 29.8 46.4867 28.8 46.4867 27.6V22.9L51.3867 23.2C52.9867 23.3 54.6867 23.5 56.1867 24.5C57.5867 25.4 58.1867 26.6 58.5867 27.7H47.8867C47.4867 27.7 47.1867 28 47.1867 28.4C47.1867 28.8 47.4867 29.1 47.8867 29.1H59.2867C59.4867 29.1 59.6867 29 59.7867 28.8C59.8867 28.6 59.9867 28.4 59.9867 28.2C59.6867 26.7 58.8867 24.7 56.7867 23.3C55.0867 22.2 53.1867 21.9 51.3867 21.8L46.3867 21.5V19.6L52.8867 20.1C54.9867 20.3 57.1867 20.6 59.0867 22.2C61.3867 24.1 62.2867 26.8 62.5867 28.8C62.6867 29.6 62.7867 30.4 62.7867 31.3C62.7867 31.7 63.0867 32 63.4867 32H66.2867C66.4867 32 66.7867 31.9 66.8867 31.7L67.9867 29.9C68.0867 29.8 68.0867 29.7 68.0867 29.5V28.2H68.5867V33.9Z" fill="#310875"/>
</g>
<defs>
<clipPath id="clip0_1671_319">
<rect width="70" height="48.5" fill="white"/>
</clipPath>
</defs>
</svg>
