<svg width="68" height="63" viewBox="0 0 68 63" fill="none" xmlns="http://www.w3.org/2000/svg">
<g clip-path="url(#clip0_1671_362)">
<path d="M67.2 61.35H62.8V31.45C62.8 31.05 62.5 30.75 62.1 30.75H52.6V8.45005C52.6 8.05005 52.3 7.75005 51.9 7.75005H42.4V0.750049C42.3 0.350049 42 0.0500488 41.6 0.0500488H26.3C25.9 0.0500488 25.6 0.350049 25.6 0.750049V7.75005H16.1C15.7 7.75005 15.4 8.05005 15.4 8.45005V30.75H5.8C5.4 30.75 5.1 31.05 5.1 31.45V61.35H0.7C0.3 61.35 0 61.65 0 62.05V62.15C0 62.55 0.3 62.85 0.7 62.85H67.2C67.6 62.85 67.9 62.55 67.9 62.15V62.05C67.9 61.65 67.6 61.35 67.2 61.35ZM61.4 32.15V61.35H52.6V32.15H61.4ZM43.5 61.35H24.5V48.75H43.5V61.35ZM27 1.45005H40.9V15.45H27V1.45005ZM16.8 9.15005H25.6V16.15C25.6 16.55 25.9 16.85 26.3 16.85H41.6C42 16.85 42.3 16.55 42.3 16.15V9.15005H51.1V61.35H44.8V48.05C44.8 47.65 44.5 47.35 44.1 47.35H23.7C23.3 47.35 23 47.65 23 48.05V61.35H16.7V9.15005H16.8ZM6.5 32.15H15.3V61.35H6.5V32.15Z" fill="#310875"/>
<path d="M31.2992 11.65H31.3992C31.6992 11.65 31.9992 11.35 31.9992 11.05V9.15H35.7992V11.05C35.7992 11.35 36.0992 11.65 36.3992 11.65H36.4992C36.7992 11.65 37.0992 11.35 37.0992 11.05V5.85C37.0992 5.55 36.7992 5.25 36.4992 5.25H36.3992C36.0992 5.25 35.7992 5.55 35.7992 5.85V7.75H31.9992V5.85C31.9992 5.55 31.6992 5.25 31.3992 5.25H31.2992C30.9992 5.25 30.6992 5.55 30.6992 5.85V10.95C30.6992 11.35 30.9992 11.65 31.2992 11.65Z" fill="#310875"/>
<path d="M30.1 33.3501H31.4C31.7 33.3501 32 33.0501 32 32.7501V31.4501C32 31.1501 31.7 30.8501 31.4 30.8501H30.1C29.8 30.8501 29.5 31.1501 29.5 31.4501V32.7501C29.5 33.0501 29.8 33.3501 30.1 33.3501Z" fill="#310875"/>
<path d="M23.6996 33.3501H24.9996C25.2996 33.3501 25.5996 33.0501 25.5996 32.7501V31.4501C25.5996 31.1501 25.2996 30.8501 24.9996 30.8501H23.6996C23.3996 30.8501 23.0996 31.1501 23.0996 31.4501V32.7501C23.0996 33.0501 23.3996 33.3501 23.6996 33.3501Z" fill="#310875"/>
<path d="M36.5004 33.3501H37.8004C38.1004 33.3501 38.4004 33.0501 38.4004 32.7501V31.4501C38.4004 31.1501 38.1004 30.8501 37.8004 30.8501H36.5004C36.2004 30.8501 35.9004 31.1501 35.9004 31.4501V32.7501C35.9004 33.0501 36.2004 33.3501 36.5004 33.3501Z" fill="#310875"/>
<path d="M42.9008 33.3501H44.2008C44.5008 33.3501 44.8008 33.0501 44.8008 32.7501V31.4501C44.8008 31.1501 44.5008 30.8501 44.2008 30.8501H42.9008C42.6008 30.8501 42.3008 31.1501 42.3008 31.4501V32.7501C42.3008 33.0501 42.6008 33.3501 42.9008 33.3501Z" fill="#310875"/>
<path d="M30.1 39.75H31.4C31.7 39.75 32 39.45 32 39.15V37.85C32 37.55 31.7 37.25 31.4 37.25H30.1C29.8 37.25 29.5 37.55 29.5 37.85V39.15C29.5 39.45 29.8 39.75 30.1 39.75Z" fill="#310875"/>
<path d="M23.6996 39.75H24.9996C25.2996 39.75 25.5996 39.45 25.5996 39.15V37.85C25.5996 37.55 25.2996 37.25 24.9996 37.25H23.6996C23.3996 37.25 23.0996 37.55 23.0996 37.85V39.15C23.0996 39.45 23.3996 39.75 23.6996 39.75Z" fill="#310875"/>
<path d="M36.5004 39.75H37.8004C38.1004 39.75 38.4004 39.45 38.4004 39.15V37.85C38.4004 37.55 38.1004 37.25 37.8004 37.25H36.5004C36.2004 37.25 35.9004 37.55 35.9004 37.85V39.15C35.9004 39.45 36.2004 39.75 36.5004 39.75Z" fill="#310875"/>
<path d="M42.9008 39.75H44.2008C44.5008 39.75 44.8008 39.45 44.8008 39.15V37.85C44.8008 37.55 44.5008 37.25 44.2008 37.25H42.9008C42.6008 37.25 42.3008 37.55 42.3008 37.85V39.15C42.3008 39.45 42.6008 39.75 42.9008 39.75Z" fill="#310875"/>
<path d="M30.1 26.95H31.4C31.7 26.95 32 26.65 32 26.35V25.05C32 24.75 31.7 24.45 31.4 24.45H30.1C29.8 24.45 29.5 24.75 29.5 25.05V26.35C29.5 26.65 29.8 26.95 30.1 26.95Z" fill="#310875"/>
<path d="M23.6996 26.95H24.9996C25.2996 26.95 25.5996 26.65 25.5996 26.35V25.05C25.5996 24.75 25.2996 24.45 24.9996 24.45H23.6996C23.3996 24.45 23.0996 24.75 23.0996 25.05V26.35C23.0996 26.65 23.3996 26.95 23.6996 26.95Z" fill="#310875"/>
<path d="M36.5004 26.95H37.8004C38.1004 26.95 38.4004 26.65 38.4004 26.35V25.05C38.4004 24.75 38.1004 24.45 37.8004 24.45H36.5004C36.2004 24.45 35.9004 24.75 35.9004 25.05V26.35C35.9004 26.65 36.2004 26.95 36.5004 26.95Z" fill="#310875"/>
<path d="M42.9008 26.95H44.2008C44.5008 26.95 44.8008 26.65 44.8008 26.35V25.05C44.8008 24.75 44.5008 24.45 44.2008 24.45H42.9008C42.6008 24.45 42.3008 24.75 42.3008 25.05V26.35C42.3008 26.65 42.6008 26.95 42.9008 26.95Z" fill="#310875"/>
</g>
<defs>
<clipPath id="clip0_1671_362">
<rect width="67.9" height="62.9" fill="white"/>
</clipPath>
</defs>
</svg>
