<svg width="63" height="60" viewBox="0 0 63 60" fill="none" xmlns="http://www.w3.org/2000/svg">
<g clip-path="url(#clip0_1671_348)">
<path d="M62.0013 25.9057H52.5164V7.23543H54.4134C54.8127 7.23543 55.1122 6.9359 55.1122 6.53654V0.745762C55.1122 0.346398 54.8127 0.046875 54.4134 0.046875H39.0378C38.6385 0.046875 38.339 0.346398 38.339 0.745762V6.53654C38.339 6.9359 38.6385 7.23543 39.0378 7.23543H40.835V26.0055H32.049V12.2275C32.049 11.928 31.8493 11.7283 31.6496 11.6284C31.4499 11.5286 31.1504 11.5286 30.9507 11.7283L16.7733 22.3114V12.2275C16.7733 11.928 16.5736 11.7283 16.3739 11.6284C16.1742 11.5286 15.8747 11.5286 15.675 11.7283L0.299523 23.21C0.099841 23.3098 0 23.5095 0 23.809V58.354C0 58.7534 0.299523 59.0529 0.698887 59.0529H62.1011C62.5005 59.0529 62.8 58.7534 62.8 58.354V26.6046C62.7002 26.3051 62.4006 25.9057 62.0013 25.9057ZM39.7367 1.44465H53.6146V5.73781H39.7367V1.44465ZM42.2327 7.23543H51.0188V26.0055H42.2327V7.23543ZM1.39777 24.1086L15.2757 13.6253V23.7092C15.2757 24.0087 15.4754 24.2084 15.675 24.3082C15.8747 24.4081 16.1742 24.4081 16.3739 24.2084L30.5514 13.5254V57.4555H1.39777V24.1086ZM41.0347 57.5553V48.969H52.4165V57.6551H41.0347V57.5553ZM61.3024 57.5553H53.8143V48.1702C53.8143 47.7709 53.5148 47.4714 53.1154 47.4714H40.3358C39.9364 47.4714 39.6369 47.7709 39.6369 48.1702V57.5553H32.1488V27.4033H61.3024V57.5553Z" fill="#310875"/>
<path d="M12.8789 30.9976H7.68717C7.38765 30.9976 6.98828 31.2971 6.98828 31.6964V38.885C6.98828 39.2844 7.2878 39.5839 7.68717 39.5839H12.7791C13.1784 39.5839 13.4779 39.2844 13.4779 38.885V31.6964C13.5778 31.2971 13.1784 30.9976 12.8789 30.9976ZM12.0802 38.1861H8.38606V32.3953H12.0802V38.1861Z" fill="#310875"/>
<path d="M24.3611 30.9976H19.2692C18.8698 30.9976 18.5703 31.2971 18.5703 31.6964V38.885C18.5703 39.2844 18.8698 39.5839 19.2692 39.5839H24.3611C24.7605 39.5839 25.06 39.2844 25.06 38.885V31.6964C25.06 31.2971 24.7605 30.9976 24.3611 30.9976ZM23.6622 38.1861H19.9681V32.3953H23.6622V38.1861Z" fill="#310875"/>
</g>
<defs>
<clipPath id="clip0_1671_348">
<rect width="62.8" height="59.1" fill="white"/>
</clipPath>
</defs>
</svg>
