<svg width="63" height="51" viewBox="0 0 63 51" fill="none" xmlns="http://www.w3.org/2000/svg">
<g clip-path="url(#clip0_1671_327)">
<path d="M62.7 13.25L57.4 5.65005V0.750049C57.3 0.350049 57 0.0500488 56.6 0.0500488H6.2C5.8 0.0500488 5.5 0.350049 5.5 0.750049V5.65005L0.2 13.25C0 13.35 0 13.45 0 13.65V16.35C0 19.85 2.7 22.85 6.1 23.15V48.55H4.3C3.9 48.55 3.6 48.85 3.6 49.25V49.35C3.6 49.75 3.9 50.05 4.3 50.05H58.5C58.9 50.05 59.2 49.75 59.2 49.35V49.25C59.2 48.85 58.9 48.55 58.5 48.55H56.7V23.15C60.1 22.75 62.8 19.85 62.8 16.35V13.65C62.8 13.45 62.8 13.35 62.7 13.25ZM6.9 1.45005H56V5.15005H6.9V1.45005ZM43.7 21.75C40.7 21.75 38.3 19.35 38.3 16.35V13.55L37 6.55005H46.6L49.1 13.75V16.35C49.1 19.35 46.7 21.75 43.7 21.75ZM31.4 21.75C28.4 21.75 26 19.35 26 16.35V13.65L27.3 6.55005H35.7L37 13.65V16.35C36.8 19.35 34.4 21.75 31.4 21.75ZM19.1 21.75C16.1 21.75 13.7 19.35 13.7 16.35V13.75L16.2 6.55005H25.8L24.6 13.45V16.25C24.6 19.35 22.1 21.75 19.1 21.75ZM1.4 16.35V13.85L6.5 6.55005H14.7L12.3 13.35V16.25C12.3 19.25 9.9 21.65 6.9 21.65C3.9 21.75 1.4 19.35 1.4 16.35ZM46.3 48.55H34.9V36.55C34.9 33.4501 37.5 30.85 40.6 30.85C43.7 30.85 46.3 33.4501 46.3 36.55V48.55ZM47.7 48.55V36.55C47.7 32.65 44.5 29.45 40.6 29.45C36.7 29.45 33.5 32.65 33.5 36.55V48.55H7.5V23.15C7.8 23.15 8 23.05 8.3 23.05C8.4 23.05 8.4 23.05 8.5 22.95C8.7 22.85 8.9 22.85 9.1 22.75C9.2 22.75 9.2 22.65 9.3 22.65L9.9 22.35H10C10.2 22.25 10.5 22.05 10.7 21.95C10.8 21.95 10.8 21.85 10.8 21.85C11 21.75 11.1 21.65 11.3 21.45L11.5 21.25L11.9 20.85L12 20.75C12.2 20.55 12.3 20.35 12.5 20.15C12.5 20.15 12.5 20.05 12.6 20.05L12.9 19.45V19.35L13 19.45C13 19.55 13.1 19.55 13.1 19.65C13.2 19.85 13.3 19.95 13.4 20.05V20.15C13.5 20.35 13.6 20.45 13.7 20.65L13.8 20.75L14.1 21.05L14.2 21.15L14.6 21.55L14.7 21.65C14.8 21.75 14.9 21.85 15.1 21.95C15.2 21.95 15.2 22.05 15.3 22.05C15.4 22.15 15.6 22.25 15.7 22.35H15.8C16 22.45 16.1 22.55 16.3 22.55C16.4 22.55 16.4 22.55 16.5 22.65C16.6 22.75 16.8 22.75 16.9 22.85C17 22.85 17 22.85 17.1 22.95C17.3 23.05 17.5 23.05 17.7 23.05H17.9C18 23.05 18.2 23.15 18.4 23.15H20C20.2 23.15 20.3 23.15 20.5 23.05H20.7C20.9 23.05 21.1 22.95 21.3 22.95C21.4 22.95 21.4 22.95 21.5 22.85C21.6 22.85 21.8 22.75 21.9 22.65C22 22.65 22 22.65 22.1 22.55C22.3 22.45 22.4 22.35 22.6 22.35H22.7C22.9 22.25 23 22.15 23.1 22.05C23.2 22.05 23.2 21.95 23.3 21.95C23.4 21.85 23.5 21.75 23.7 21.65L23.8 21.55C23.9 21.45 24.1 21.35 24.2 21.15L24.3 21.05L24.6 20.75L24.7 20.65C24.8 20.55 24.9 20.35 25 20.15V20.05C25.1 19.95 25.2 19.75 25.3 19.65C25.3 19.55 25.4 19.55 25.4 19.45L25.5 19.35L25.6 19.45C25.6 19.55 25.7 19.55 25.7 19.65C25.8 19.85 25.9 19.95 26 20.05V20.15C26.1 20.35 26.2 20.45 26.3 20.65L26.4 20.75L26.7 21.05L26.8 21.15L27.2 21.55L27.3 21.65C27.4 21.75 27.5 21.85 27.7 21.95C27.8 21.95 27.8 22.05 27.9 22.05C28 22.15 28.2 22.25 28.3 22.35H28.4C28.6 22.45 28.7 22.55 28.9 22.55C29 22.55 29 22.55 29.1 22.65C29.2 22.75 29.4 22.75 29.5 22.85C29.6 22.85 29.6 22.85 29.7 22.95C29.9 23.05 30.1 23.05 30.3 23.05H30.5C30.6 23.05 30.8 23.15 31 23.15H32.6C32.8 23.15 32.9 23.15 33.1 23.05H33.3C33.5 23.05 33.7 22.95 33.9 22.95C34 22.95 34 22.95 34.1 22.85C34.2 22.85 34.4 22.75 34.5 22.65C34.6 22.65 34.6 22.65 34.7 22.55C34.9 22.45 35 22.35 35.2 22.35H35.3C35.5 22.25 35.6 22.15 35.7 22.05C35.8 22.05 35.8 21.95 35.9 21.95C36 21.85 36.1 21.75 36.3 21.65L36.4 21.55C36.5 21.45 36.7 21.35 36.8 21.15L36.9 21.05L37.2 20.75L37.3 20.65C37.4 20.55 37.5 20.35 37.6 20.15V20.05C37.7 19.95 37.8 19.75 37.9 19.65C37.9 19.55 38 19.55 38 19.45L38.1 19.35L38.2 19.45C38.2 19.55 38.3 19.55 38.3 19.65C38.4 19.75 38.5 19.95 38.6 20.05V20.15C38.7 20.35 38.8 20.45 38.9 20.65L39 20.75L39.3 21.05L39.4 21.15L39.8 21.55L39.9 21.65C40 21.75 40.1 21.85 40.3 21.95C40.4 21.95 40.4 22.05 40.5 22.05C40.6 22.15 40.8 22.25 40.9 22.35H41C41.2 22.45 41.3 22.55 41.5 22.55C41.6 22.55 41.6 22.55 41.7 22.65C41.8 22.75 42 22.75 42.1 22.85C42.2 22.85 42.2 22.85 42.3 22.95C42.5 23.05 42.7 23.05 42.9 23.05H43.1C43.2 23.05 43.4 23.15 43.6 23.15H45.2C45.4 23.15 45.5 23.15 45.7 23.05H45.9C46.1 23.05 46.3 22.95 46.5 22.95C46.6 22.95 46.6 22.95 46.7 22.85C46.8 22.85 47 22.75 47.1 22.65C47.2 22.65 47.2 22.65 47.3 22.55C47.5 22.45 47.6 22.35 47.8 22.35H47.9C48.1 22.25 48.2 22.15 48.3 22.05C48.4 22.05 48.4 21.95 48.5 21.95C48.6 21.85 48.7 21.75 48.9 21.65L49 21.55C49.1 21.45 49.3 21.35 49.4 21.15L49.5 21.05L49.8 20.75L49.9 20.65C50 20.55 50.1 20.35 50.2 20.15V20.05C50.3 19.95 50.4 19.75 50.5 19.65C50.5 19.55 50.6 19.55 50.6 19.45L50.7 19.35C50.7 19.35 50.7 19.45 50.8 19.45L51.1 20.05C51.1 20.05 51.1 20.15 51.2 20.15C51.3 20.35 51.5 20.55 51.7 20.75L51.8 20.85L52.2 21.25L52.4 21.45C52.5 21.55 52.7 21.75 52.9 21.85C53 21.85 53 21.95 53 21.95C53.2 22.05 53.4 22.25 53.7 22.35H53.8L54.4 22.65C54.5 22.65 54.5 22.75 54.6 22.75C54.8 22.85 55 22.85 55.2 22.95C55.3 22.95 55.3 22.95 55.4 23.05C55.7 23.15 55.9 23.15 56.2 23.15V48.55H47.7ZM61.4 16.35C61.4 19.35 59 21.75 56 21.75C53 21.75 50.6 19.35 50.6 16.35V13.45L48.2 6.65005H56.4L61.5 13.95V16.35H61.4Z" fill="#310875"/>
<path d="M25.3996 29.45H16.3996C15.6996 29.45 15.0996 30.05 15.0996 30.75V39.75C15.0996 40.45 15.6996 41.05 16.3996 41.05H25.3996C26.0996 41.05 26.6996 40.45 26.6996 39.75V30.75C26.6996 30.05 26.0996 29.45 25.3996 29.45ZM25.2996 39.65H16.4996V30.85H25.2996V39.65Z" fill="#310875"/>
</g>
<defs>
<clipPath id="clip0_1671_327">
<rect width="62.8" height="50.1" fill="white"/>
</clipPath>
</defs>
</svg>
