<svg width="70" height="46" viewBox="0 0 70 46" fill="none" xmlns="http://www.w3.org/2000/svg">
<g clip-path="url(#clip0_1671_335)">
<path d="M67.3897 20.9476L61.1815 19.5458C60.4805 16.742 59.0787 10.4336 58.6781 8.63124C58.1775 6.52844 56.5753 6.52844 55.8744 6.52844H42.5567V7.93031H55.8744C56.4752 7.93031 56.9759 7.93031 57.2763 8.93164C57.6768 10.734 59.2789 17.7434 59.8797 20.2467C59.9799 20.5471 60.1801 20.7474 60.3804 20.7474L66.9892 22.2494C67.3897 22.3495 67.6901 22.75 67.6901 23.1506V25.3535H66.088C65.6875 25.3535 65.3871 25.6539 65.3871 26.0544C65.3871 26.455 65.6875 26.7554 66.088 26.7554H67.6901V36.5684C67.6901 36.8688 67.3897 37.1692 67.0893 37.1692H63.2843C63.2843 32.8635 59.8797 29.3588 55.7743 29.3588C51.6688 29.3588 48.2643 32.8635 48.2643 37.1692H23.3311C23.3311 32.8635 19.9265 29.3588 15.8211 29.3588C11.7156 29.3588 8.31107 33.0638 8.31107 37.3695H2.80373C2.7036 37.3695 2.60347 37.2694 2.60347 37.1692V32.6632H6.80907V31.2614H1.40187V1.42164H40.7543V31.1612H24.1321V32.5631H41.4552C41.8557 32.5631 42.1561 32.2627 42.1561 31.8622V0.720709C42.1561 0.320175 41.8557 0.0197754 41.4552 0.0197754H0.700933C0.3004 0.0197754 0 0.320175 0 0.720709V31.8622C0 32.2627 0.3004 32.5631 0.700933 32.5631H1.2016V37.0691C1.2016 37.9703 1.90253 38.6712 2.80373 38.6712H8.4112C9.012 42.3762 12.1161 45.28 15.8211 45.28C19.526 45.28 22.6301 42.4763 23.2309 38.6712H48.3644C48.9652 42.3762 52.0693 45.28 55.7743 45.28C59.4792 45.28 62.5833 42.4763 63.1841 38.6712H67.0893C68.1908 38.6712 69.092 37.77 69.092 36.6686V23.2507C69.1921 22.1492 68.3911 21.1479 67.3897 20.9476ZM15.8211 43.8782C12.4165 43.8782 9.71293 40.9743 9.71293 37.3695C9.71293 33.7647 12.4165 30.8608 15.8211 30.8608C19.2256 30.8608 21.9292 33.7647 21.9292 37.3695C21.9292 40.9743 19.2256 43.8782 15.8211 43.8782ZM55.8744 43.8782C52.4699 43.8782 49.7663 40.9743 49.7663 37.3695C49.7663 33.7647 52.4699 30.8608 55.8744 30.8608C59.2789 30.8608 61.9825 33.7647 61.9825 37.3695C61.9825 40.9743 59.2789 43.8782 55.8744 43.8782Z" fill="#310875"/>
<path d="M56.4746 19.8462C56.6749 19.8462 56.8751 19.7461 56.9753 19.5458C57.0754 19.3455 57.1755 19.1453 57.1755 18.945L55.6735 10.8342C55.5734 10.5338 55.273 10.2334 54.9726 10.2334H44.8591C44.4586 10.2334 44.1582 10.5338 44.1582 10.9343V19.0451C44.1582 19.4457 44.4586 19.7461 44.8591 19.7461H56.4746V19.8462ZM45.5601 11.7354H54.3718L55.5734 18.3442H45.5601V11.7354Z" fill="#310875"/>
</g>
<defs>
<clipPath id="clip0_1671_335">
<rect width="69.1" height="45.3" fill="white"/>
</clipPath>
</defs>
</svg>
