<svg width="63" height="59" viewBox="0 0 63 59" fill="none" xmlns="http://www.w3.org/2000/svg">
<g clip-path="url(#clip0_1671_391)">
<path d="M62.1635 56.9419H60.5654V53.1464C60.5654 52.7468 60.2658 52.4472 59.8662 52.4472H55.9709V35.6672H57.569C57.9685 35.6672 58.2681 35.3675 58.2681 34.968V31.0726H59.9661C60.3656 31.0726 60.6653 30.773 60.6653 30.3735V24.2807H62.2634C62.563 24.2807 62.8627 24.081 62.9625 23.7813C63.0624 23.4817 62.9625 23.182 62.6629 22.9823L31.8995 0.209392C31.5999 0.00962977 31.3002 0.00962977 31.1005 0.209392L0.337099 22.9823C0.0374554 23.182 -0.0624257 23.4817 0.0374554 23.7813C0.137337 24.081 0.43698 24.2807 0.736623 24.2807H2.33472V30.3735C2.33472 30.773 2.63436 31.0726 3.03389 31.0726H4.63199V34.968C4.63199 35.3675 4.93163 35.6672 5.33115 35.6672H6.92925V52.4472H3.03389C2.63436 52.4472 2.33472 52.7468 2.33472 53.1464V56.9419H0.736623C0.337099 56.9419 0.0374554 57.2415 0.0374554 57.641V57.7409C0.0374554 58.1404 0.337099 58.4401 0.736623 58.4401H62.1635C62.563 58.4401 62.8627 58.1404 62.8627 57.7409V57.641C62.9625 57.2415 62.563 56.9419 62.1635 56.9419ZM54.6724 52.4472H46.9816V35.6672H54.6724V52.4472ZM36.6938 52.4472V35.6672H38.2919C38.6914 35.6672 38.9911 35.3675 38.9911 34.968V31.0726H43.286V34.968C43.286 35.3675 43.5856 35.6672 43.9851 35.6672H45.5832V52.4472H36.6938ZM17.4168 52.4472V35.6672H19.0149C19.4144 35.6672 19.714 35.3675 19.714 34.968V31.0726H24.0089V34.968C24.0089 35.3675 24.3086 35.6672 24.7081 35.6672H26.3062V52.4472H17.4168ZM35.9946 34.2688H25.3074V31.0726H37.5927V34.169H35.9946V34.2688ZM27.6046 35.6672H35.2955V52.4472H27.6046V35.6672ZM56.9697 34.2688H44.6843V31.0726H56.9697V34.2688ZM31.5 1.70761L60.066 22.8824H2.93401L31.5 1.70761ZM3.73306 24.2807H59.2669V29.6743H3.73306V24.2807ZM6.03032 31.0726H18.3157V34.169H6.03032V31.0726ZM8.32759 35.6672H16.0184V52.4472H8.32759V35.6672ZM3.73306 53.8455H59.2669V56.9419H3.73306V53.8455Z" fill="#310875"/>
</g>
<defs>
<clipPath id="clip0_1671_391">
<rect width="63" height="58.5" fill="white"/>
</clipPath>
</defs>
</svg>
