<svg width="68" height="68" viewBox="0 0 68 68" fill="none" xmlns="http://www.w3.org/2000/svg">
<g clip-path="url(#clip0_1671_381)">
<path d="M67.2 66.4H62.8V36.5C62.8 36.1 62.5 35.8 62.1 35.8H52.6V25.9L53.9 26.9C54 27 54.2 27 54.3 27C54.5 27 54.7 26.9 54.9 26.7L55 26.6C55.1 26.4 55.2 26.3 55.1 26.1C55.1 25.9 55 25.7 54.8 25.6L34.7 10.6V6.6H41.6C42 6.6 42.3 6.3 42.3 5.9V0.7C42.3 0.3 42 0 41.6 0H33.9C33.5 0 33.2 0.3 33.2 0.7V10.5L13 25.7C12.8 25.8 12.7 26 12.7 26.2C12.7 26.4 12.7 26.6 12.8 26.7L12.9 26.8C13.1 27.1 13.6 27.2 13.9 26.9L15.2 25.9V35.8H5.8C5.4 35.8 5.1 36.1 5.1 36.5V66.4H0.7C0.3 66.4 0 66.7 0 67.1V67.2C0 67.7 0.3 68 0.7 68H67.2C67.6 68 67.9 67.7 67.9 67.3V67.2C67.9 66.8 67.6 66.4 67.2 66.4ZM61.4 37.2V66.4H52.6V37.2H61.4ZM40.9 5.1H34.7V1.4H40.9V5.1ZM6.5 37.2H15.3V66.4H6.5V37.2ZM34.7 57.7H42.2V66.5H34.7V57.7ZM33.2 66.4H25.7V57.6H33.2V66.4ZM43.6 66.4V57C43.6 56.6 43.3 56.3 42.9 56.3H24.9C24.5 56.3 24.2 56.6 24.2 57V66.5H16.7V24.8L34 11.9L51.2 24.8V66.4H43.6Z" fill="#310875"/>
<path d="M30.1 28.1001H23.7C23.3 28.1001 23 28.4001 23 28.8001V36.5001C23 36.9001 23.3 37.2001 23.7 37.2001H30.1C30.5 37.2001 30.8 36.9001 30.8 36.5001V28.8001C30.8 28.5001 30.5 28.1001 30.1 28.1001ZM29.4 35.8001H24.4V29.5001H29.4V35.8001Z" fill="#310875"/>
<path d="M44.1996 28.1001H37.7996C37.3996 28.1001 37.0996 28.4001 37.0996 28.8001V36.5001C37.0996 36.9001 37.3996 37.2001 37.7996 37.2001H44.1996C44.5996 37.2001 44.8996 36.9001 44.8996 36.5001V28.8001C44.8996 28.5001 44.5996 28.1001 44.1996 28.1001ZM43.4996 35.8001H38.4996V29.5001H43.4996V35.8001Z" fill="#310875"/>
<path d="M30.1 40.8999H23.7C23.3 40.8999 23 41.1999 23 41.5999V49.2999C23 49.6999 23.3 49.9999 23.7 49.9999H30.1C30.5 49.9999 30.8 49.6999 30.8 49.2999V41.5999C30.8 41.1999 30.5 40.8999 30.1 40.8999ZM29.4 48.5999H24.4V42.2999H29.4V48.5999Z" fill="#310875"/>
<path d="M44.1996 40.8999H37.7996C37.3996 40.8999 37.0996 41.1999 37.0996 41.5999V49.2999C37.0996 49.6999 37.3996 49.9999 37.7996 49.9999H44.1996C44.5996 49.9999 44.8996 49.6999 44.8996 49.2999V41.5999C44.8996 41.1999 44.5996 40.8999 44.1996 40.8999ZM43.4996 48.5999H38.4996V42.2999H43.4996V48.5999Z" fill="#310875"/>
</g>
<defs>
<clipPath id="clip0_1671_381">
<rect width="67.9" height="68" fill="white"/>
</clipPath>
</defs>
</svg>
