<svg width="59" height="50" viewBox="0 0 59 50" fill="none" xmlns="http://www.w3.org/2000/svg">
<g clip-path="url(#clip0_1671_356)">
<path d="M29.1 0.0500488C15 0.0500488 0.1 2.95005 0 8.25005V41.75C0 46.35 10.8 48.85 20.9 49.65C23.5 49.85 26.3 49.9501 29 49.9501C31.7 49.9501 34.5 49.85 37.1 49.65C47.2 48.85 58.1 46.35 58.1 41.75V8.25005C58.1 2.95005 43.2 0.0500488 29.1 0.0500488ZM34.4 48.4501C32.7 48.55 30.9 48.65 29.1 48.65H29C27.2 48.65 25.5 48.55 23.8 48.4501V43.85C23.8 40.95 26.2 38.55 29.1 38.55C32 38.55 34.4 40.95 34.4 43.85V48.4501ZM35.8 48.4501V43.85C35.8 42.0731 35.0941 40.3689 33.8376 39.1124C32.5811 37.8559 30.877 37.15 29.1 37.15C27.323 37.15 25.6189 37.8559 24.3624 39.1124C23.1059 40.3689 22.4 42.0731 22.4 43.85V48.4501C22 48.4501 21.5 48.35 21.1 48.35C17.5 48.05 14.4 47.65 11.8 47.05V31.15C16.9 32.15 23.1 32.65 29.1 32.65C34.9 32.65 40.8 32.1501 45.8 31.25V47.15C43.3 47.65 40.4 48.05 37.1 48.25C36.6 48.35 36.2 48.4501 35.8 48.4501ZM29.1 11.15C36 11.15 42.2 12.15 45.3 13.65C40.9 14.45 35.4 15.05 29.1 15.05C22.9 15.05 17.3 14.55 12.9 13.65C16 12.15 22.2 11.15 29.1 11.15ZM28.4 16.45V31.35C21.9 31.35 16.2 30.75 11.8 29.75V14.85C16.7 15.85 22.6 16.35 28.4 16.45ZM29.8 16.45C35.4 16.45 41 15.95 45.8 15.05V29.95C41.4 30.85 36 31.35 29.8 31.35V16.45ZM39.8 10.65C36.9 10.15 33.4 9.85005 29.7 9.75005V1.45005C35.8 1.45005 41.1 2.05005 45.4 2.85005L39.8 10.65ZM28.4 9.75005C24.7 9.75005 21.3 10.05 18.3 10.65L12.7 2.85005C17 2.05005 22.3 1.55005 28.4 1.45005V9.75005ZM56.7 24.55C56.7 26.35 53.1 28.25 47.2 29.65V14.75C51.5 13.85 54.9 12.55 56.7 10.95V24.55ZM56.7 8.25005C56.7 10.05 53.2 11.95 47.2 13.25C46 12.35 43.9 11.55 41.3 10.95L47 3.15005C53.1 4.45005 56.7 6.45005 56.7 8.25005ZM11.2 3.15005L16.8 10.95C14.1 11.55 12.1 12.35 10.9 13.25C5 11.95 1.5 10.05 1.4 8.25005C1.4 6.45005 5 4.45005 11.2 3.15005ZM10.3 14.55V29.45C4.7 28.15 1.4 26.35 1.4 24.55V10.95C3.1 12.45 6.3 13.65 10.3 14.55ZM1.4 27.25C3.1 28.75 6.3 30.05 10.3 30.95V46.85C4.5 45.45 1.4 43.55 1.4 41.9501V27.25ZM47.2 46.9501V31.05C51.5 30.15 54.9 28.85 56.7 27.25V41.9501C56.7 43.55 53.4 45.55 47.2 46.9501Z" fill="#310875"/>
</g>
<defs>
<clipPath id="clip0_1671_356">
<rect width="58.1" height="50" fill="white"/>
</clipPath>
</defs>
</svg>
