<svg width="36" height="36" viewBox="0 0 36 36" fill="none" xmlns="http://www.w3.org/2000/svg">
<path d="M22.2544 4.5L22.6687 4.50347C24.1238 4.52919 24.8973 4.70138 25.6987 5.12995C26.4943 5.55547 27.1241 6.18529 27.5497 6.98094C27.9977 7.81872 28.1655 8.62608 28.1788 10.2136L28.1796 20.6C28.1796 21.0971 27.7767 21.5 27.2796 21.5C26.7826 21.5 26.3796 21.0971 26.3796 20.6V10.4252C26.3796 8.96796 26.2714 8.4076 25.9624 7.82982C25.7046 7.34785 25.3318 6.97497 24.8498 6.71721C24.2971 6.42165 23.7604 6.30979 22.4395 6.30062L11.0248 6.3C9.56757 6.3 9.00721 6.40821 8.42943 6.71721C7.94746 6.97497 7.57458 7.34785 7.31682 7.82982L7.24071 7.98075C7.00177 8.48655 6.90857 9.03929 6.90023 10.2401L6.89961 25.5748C6.89961 27.032 7.00782 27.5924 7.31682 28.1702C7.57458 28.6522 7.94746 29.025 8.42943 29.2828L8.58036 29.3589C9.11145 29.6098 9.69429 29.7 11.0248 29.7H17.3596C17.8567 29.7 18.2596 30.1029 18.2596 30.6C18.2596 31.0971 17.8567 31.5 17.3596 31.5H11.0248L10.6105 31.4965C9.15543 31.4708 8.3819 31.2986 7.58055 30.8701C6.7849 30.4445 6.15508 29.8147 5.72956 29.0191C5.26203 28.1449 5.09961 27.3038 5.09961 25.5748V10.4252L5.10308 10.0109C5.1288 8.55582 5.30099 7.78229 5.72956 6.98094C6.15508 6.18529 6.7849 5.55547 7.58055 5.12995C8.45475 4.66242 9.29584 4.5 11.0248 4.5H22.2544ZM30.692 22.1005C31.0563 22.4387 31.0773 23.0082 30.7391 23.3724L23.4591 31.2124C23.112 31.5862 22.5239 31.5971 22.1632 31.2364L18.2432 27.3164C17.8917 26.9649 17.8917 26.3951 18.2432 26.0436C18.5947 25.6921 19.1645 25.6921 19.516 26.0436L22.7748 29.303L29.4201 22.1476C29.7583 21.7834 30.3278 21.7623 30.692 22.1005ZM16.7996 19.5C17.2967 19.5 17.6996 19.9029 17.6996 20.4C17.6996 20.8971 17.2967 21.3 16.7996 21.3H12.5996C12.1026 21.3 11.6996 20.8971 11.6996 20.4C11.6996 19.9029 12.1026 19.5 12.5996 19.5H16.7996ZM20.9996 13.5C21.4967 13.5 21.8996 13.9029 21.8996 14.4C21.8996 14.8971 21.4967 15.3 20.9996 15.3H12.5996C12.1026 15.3 11.6996 14.8971 11.6996 14.4C11.6996 13.9029 12.1026 13.5 12.5996 13.5H20.9996Z" fill="#00322F"/>
</svg>
