<svg width="30" height="30" viewBox="0 0 30 30" fill="none" xmlns="http://www.w3.org/2000/svg">
<g clip-path="url(#clip0_1867_271)">
<path d="M22.4824 6.36709L16.2919 0.138281C16.2483 0.0944557 16.1965 0.0596766 16.1395 0.0359449C16.0824 0.0122133 16.0212 -2.63793e-06 15.9594 4.27276e-10L2.40234 4.27276e-10C1.8897 0.000589296 1.39823 0.204496 1.03574 0.566987C0.673246 0.929479 0.469339 1.42095 0.46875 1.93359V28.0664C0.469339 28.579 0.673246 29.0705 1.03574 29.433C1.39823 29.7955 1.8897 29.9994 2.40234 30H20.6853C21.1979 29.9994 21.6894 29.7955 22.0519 29.433C22.4144 29.0705 22.6183 28.579 22.6189 28.0664V18.9141L28.7295 12.8034C29.2446 12.2882 29.534 11.5895 29.534 10.861C29.534 10.1325 29.2446 9.43377 28.7295 8.91861C28.2143 8.40346 27.5156 8.11405 26.7871 8.11405C26.0585 8.11405 25.3598 8.40346 24.8447 8.91861L22.6187 11.1446V6.69732C22.6187 6.57357 22.5697 6.45486 22.4824 6.36709ZM23.3461 11.7431L25.9049 14.302L16.9342 23.2727L14.3754 20.7138L23.3461 11.7431ZM24.6389 10.4503L27.1978 13.0091L26.5678 13.639L24.0091 11.0801L24.6389 10.4503ZM13.9516 21.6152L16.0235 23.6872L13.4379 24.1693L13.9516 21.6152ZM16.6598 1.83838L20.7555 5.9591H16.6598V1.83838ZM21.6814 28.0664C21.6811 28.3305 21.5761 28.5837 21.3893 28.7704C21.2026 28.9572 20.9494 29.0622 20.6853 29.0625H2.40234C2.13825 29.0622 1.88506 28.9572 1.69832 28.7704C1.51158 28.5837 1.40654 28.3305 1.40625 28.0664V1.93359C1.40654 1.6695 1.51158 1.41631 1.69832 1.22957C1.88506 1.04283 2.13825 0.937795 2.40234 0.9375H15.7223V6.42773C15.7223 6.55205 15.7717 6.67128 15.8596 6.75919C15.9475 6.8471 16.0667 6.89648 16.191 6.89648H21.6813V12.082L13.3089 20.4547C13.2436 20.52 13.199 20.6031 13.1808 20.6937L12.3819 24.6651C12.3668 24.7403 12.3703 24.818 12.3923 24.8915C12.4142 24.965 12.4538 25.032 12.5077 25.0866C12.5615 25.1412 12.6279 25.1818 12.7011 25.2048C12.7743 25.2277 12.852 25.2324 12.9274 25.2183L16.948 24.4688C17.041 24.4514 17.1266 24.4063 17.1936 24.3394L21.6814 19.8516V28.0664ZM28.0664 9.5816C28.4041 9.92179 28.5936 10.3817 28.5936 10.861C28.5936 11.3404 28.4041 11.8003 28.0664 12.1404L27.8606 12.3462L25.3018 9.78738L25.5076 9.5816C25.8471 9.24278 26.3073 9.05249 26.787 9.05249C27.2667 9.05249 27.7268 9.24278 28.0664 9.5816ZM11.8383 21.9731C11.8383 22.0974 11.7889 22.2166 11.701 22.3045C11.6131 22.3924 11.4939 22.4418 11.3695 22.4418H4.051C3.92668 22.4418 3.80745 22.3924 3.71954 22.3045C3.63163 22.2166 3.58225 22.0974 3.58225 21.9731C3.58225 21.8487 3.63163 21.7295 3.71954 21.6416C3.80745 21.5537 3.92668 21.5043 4.051 21.5043H11.3694C11.4309 21.5043 11.4919 21.5164 11.5488 21.5399C11.6057 21.5635 11.6574 21.598 11.7009 21.6415C11.7445 21.6851 11.779 21.7368 11.8026 21.7936C11.8262 21.8505 11.8383 21.9115 11.8383 21.9731ZM3.58242 17.8879C3.58242 17.7636 3.63181 17.6444 3.71972 17.5565C3.80762 17.4685 3.92685 17.4192 4.05117 17.4192H13.7212C13.8455 17.4192 13.9647 17.4685 14.0526 17.5565C14.1406 17.6444 14.1899 17.7636 14.1899 17.8879C14.1899 18.0122 14.1406 18.1315 14.0526 18.2194C13.9647 18.3073 13.8455 18.3567 13.7212 18.3567H4.051C3.92668 18.3567 3.80745 18.3073 3.71954 18.2194C3.63163 18.1315 3.58225 18.0122 3.58225 17.8879H3.58242ZM3.58242 13.8028C3.58242 13.6784 3.63181 13.5592 3.71972 13.4713C3.80762 13.3834 3.92685 13.334 4.05117 13.334H19.0366C19.161 13.334 19.2802 13.3834 19.3681 13.4713C19.456 13.5592 19.5054 13.6784 19.5054 13.8028C19.5054 13.9271 19.456 14.0463 19.3681 14.1342C19.2802 14.2221 19.161 14.2715 19.0366 14.2715H4.051C3.92668 14.2715 3.80745 14.2221 3.71954 14.1342C3.63163 14.0463 3.58225 13.9271 3.58225 13.8028H3.58242ZM3.58242 9.71766C3.58242 9.59334 3.63181 9.47411 3.71972 9.3862C3.80762 9.29829 3.92685 9.24891 4.05117 9.24891H19.0366C19.161 9.24891 19.2802 9.29829 19.3681 9.3862C19.456 9.47411 19.5054 9.59334 19.5054 9.71766C19.5054 9.84198 19.456 9.9612 19.3681 10.0491C19.2802 10.137 19.161 10.1864 19.0366 10.1864H4.051C3.92668 10.1864 3.80745 10.137 3.71954 10.0491C3.63163 9.9612 3.58225 9.84198 3.58225 9.71766H3.58242ZM3.58242 5.6325C3.58242 5.50818 3.63181 5.38895 3.71972 5.30104C3.80762 5.21314 3.92685 5.16375 4.05117 5.16375H13.9741C14.0985 5.16375 14.2177 5.21314 14.3056 5.30104C14.3935 5.38895 14.4429 5.50818 14.4429 5.6325C14.4429 5.75682 14.3935 5.87605 14.3056 5.96396C14.2177 6.05186 14.0985 6.10125 13.9741 6.10125H4.051C3.92668 6.10125 3.80745 6.05186 3.71954 5.96396C3.63163 5.87605 3.58225 5.75682 3.58225 5.6325H3.58242Z" fill="#00322F"/>
</g>
<defs>
<clipPath id="clip0_1867_271">
<rect width="30" height="30" fill="white"/>
</clipPath>
</defs>
</svg>
