<svg width="146" height="146" viewBox="0 0 146 146" fill="none" xmlns="http://www.w3.org/2000/svg">
<path d="M73 39.6655C53.5027 39.6655 37.6406 55.5276 37.6406 75.0249C37.6406 86.5886 43.2628 97.3544 52.7163 103.985C56.2623 103.319 59.8388 102.827 63.433 102.512C62.7153 101.865 62.4044 100.868 62.6668 99.8905L67.9108 80.3208L60.4608 78.3247C59.3387 78.0239 58.4878 77.2189 58.1254 76.1159C57.7627 75.0138 57.97 73.8603 58.6949 72.9524L78.7473 47.841C79.5304 46.8603 80.8603 46.57 81.981 47.1358C83.0854 47.6935 83.6537 48.9648 83.3332 50.159L78.0895 69.729L85.5392 71.7248C86.661 72.0256 87.5122 72.8309 87.8746 73.9339C88.237 75.0369 88.0294 76.1898 87.3051 77.0971L67.2527 102.209C67.2404 102.224 67.2262 102.237 67.2133 102.252C69.1405 102.149 71.07 102.096 73 102.093C79.8409 102.093 86.629 102.739 93.2835 103.985C102.737 97.3544 108.359 86.5886 108.359 75.0249C108.359 55.5276 92.497 39.6655 73 39.6655Z" fill="#E6FA00"/>
<path d="M144.151 128.089C130.851 116.873 115.137 109.035 98.4065 105.071C107.208 97.6314 112.352 86.694 112.352 75.0248C112.352 53.3262 94.6989 35.6733 73.0005 35.6733C51.3021 35.6733 33.6489 53.3262 33.6489 75.0248C33.6489 86.694 38.7934 97.6314 47.5942 105.071C30.8635 109.035 15.1497 116.873 1.84998 128.089C1.44526 128.43 1.19268 128.918 1.14781 129.446C1.10294 129.973 1.26946 130.497 1.61073 130.901C1.95201 131.306 2.44008 131.559 2.96758 131.604C3.49507 131.649 4.01879 131.482 4.42352 131.141C44.1595 97.6314 101.841 97.6314 141.577 131.141C141.936 131.445 142.392 131.611 142.863 131.611C143.272 131.611 143.671 131.485 144.007 131.251C144.342 131.016 144.598 130.684 144.738 130.3C144.879 129.916 144.898 129.497 144.793 129.102C144.687 128.706 144.463 128.353 144.15 128.089H144.151ZM67.2138 102.252C67.2263 102.237 67.2406 102.224 67.2531 102.208L87.3056 77.0971C88.0299 76.1897 88.2375 75.0368 87.8751 73.9338C87.5126 72.8308 86.6612 72.0256 85.5396 71.7247L78.0899 69.7289L83.3337 50.1589C83.6542 48.9647 83.0859 47.6935 81.9815 47.1357C80.8608 46.5699 79.5308 46.8599 78.7478 47.8409L58.6953 72.9523C57.9704 73.8602 57.7628 75.0137 58.1259 76.1158C58.4883 77.2188 59.3395 78.0238 60.4613 78.3247L67.9113 80.3208L62.6673 99.8904C62.4049 100.868 62.7154 101.865 63.4335 102.512C59.8393 102.827 56.2627 103.319 52.7167 103.985C43.2635 97.3543 37.6411 86.5885 37.6411 75.0248C37.6411 55.5276 53.5032 39.6655 73.0005 39.6655C92.4977 39.6655 108.36 55.5276 108.36 75.0248C108.36 86.5885 102.737 97.3543 93.2839 103.985C86.6295 102.738 79.8411 102.093 73.0005 102.093C71.0665 102.093 69.1374 102.151 67.2138 102.252ZM69.5364 76.6231L62.3998 74.7109L77.7842 55.4454L74.0749 69.2878C73.5927 71.0877 74.6644 72.944 76.4645 73.4265L83.6011 75.3385L68.217 94.6039L71.926 80.7619C72.4079 78.962 71.3363 77.1056 69.5364 76.6231ZM71.0044 28.9322V16.385C71.0044 15.8556 71.2147 15.3479 71.589 14.9736C71.9633 14.5992 72.4711 14.3889 73.0005 14.3889C73.5299 14.3889 74.0376 14.5992 74.4119 14.9736C74.7862 15.3479 74.9966 15.8556 74.9966 16.385V28.9319C74.9966 29.4613 74.7862 29.969 74.4119 30.3433C74.0376 30.7177 73.5299 30.928 73.0005 30.928C72.4711 30.928 71.9633 30.7177 71.589 30.3433C71.2147 29.969 71.0044 29.4616 71.0044 28.9322ZM41.9518 25.2397C41.6913 24.7815 41.6226 24.2388 41.7607 23.7301C41.8988 23.2214 42.2325 22.788 42.689 22.5244C43.1454 22.2609 43.6876 22.1886 44.1972 22.3233C44.7068 22.458 45.1424 22.7889 45.409 23.2436L51.6825 34.1092C51.9404 34.5672 52.0072 35.1086 51.8684 35.6156C51.7296 36.1226 51.3964 36.5544 50.9411 36.8172C50.4858 37.08 49.9453 37.1527 49.4368 37.0193C48.9283 36.886 48.4929 36.5574 48.2252 36.105L41.9518 25.2397ZM20.4881 44.7073C20.7528 44.2488 21.1888 43.9143 21.7001 43.7773C22.2115 43.6403 22.7563 43.712 23.2147 43.9767L34.0803 50.2502C34.5388 50.5149 34.8734 50.9509 35.0104 51.4622C35.1475 51.9736 35.0757 52.5185 34.8111 52.977C34.5463 53.4355 34.1104 53.77 33.599 53.9071C33.0876 54.0441 32.5427 53.9724 32.0842 53.7077L21.2186 47.4342C20.7602 47.1695 20.4257 46.7336 20.2887 46.2222C20.1517 45.7109 20.2234 45.166 20.4881 44.7076V44.7073ZM12.3645 75.0251C12.3645 74.4957 12.5748 73.988 12.9492 73.6137C13.3235 73.2393 13.8312 73.029 14.3606 73.029H26.9075C27.4369 73.029 27.9446 73.2393 28.319 73.6137C28.6933 73.988 28.9036 74.4957 28.9036 75.0251C28.9036 75.5545 28.6933 76.0622 28.319 76.4366C27.9446 76.8109 27.4369 77.0212 26.9075 77.0212H14.3609C13.8315 77.0212 13.3238 76.8109 12.9495 76.4366C12.5751 76.0622 12.3645 75.5545 12.3645 75.0251ZM32.0845 96.3425C32.5427 96.082 33.0854 96.0133 33.5941 96.1514C34.1028 96.2895 34.5362 96.6232 34.7998 97.0797C35.0633 97.5362 35.1356 98.0784 35.0009 98.588C34.8662 99.0976 34.5353 99.5332 34.0806 99.7998L23.215 106.073C22.988 106.204 22.7374 106.29 22.4775 106.324C22.2176 106.358 21.9534 106.341 21.7002 106.273C21.447 106.205 21.2096 106.088 21.0017 105.928C20.7937 105.769 20.6193 105.569 20.4884 105.342C20.2237 104.884 20.1519 104.339 20.289 103.828C20.426 103.316 20.7605 102.88 21.2189 102.616L32.0845 96.3423V96.3425ZM94.3179 34.1092L100.591 23.2436C100.858 22.7889 101.294 22.458 101.803 22.3233C102.313 22.1886 102.855 22.2609 103.311 22.5244C103.768 22.788 104.102 23.2214 104.24 23.7301C104.378 24.2388 104.309 24.7815 104.049 25.2397L97.7751 36.1053C97.6441 36.3324 97.4697 36.5314 97.2617 36.691C97.0538 36.8507 96.8164 36.9678 96.5632 37.0356C96.31 37.1035 96.0459 37.1208 95.786 37.0866C95.5261 37.0524 95.2755 36.9673 95.0485 36.8361C94.59 36.5714 94.2555 36.1354 94.1185 35.6241C93.9815 35.1128 94.0532 34.5676 94.3179 34.1092ZM111.189 52.9765C110.924 52.5181 110.853 51.9733 110.99 51.4619C111.127 50.9506 111.461 50.5146 111.92 50.2499L122.785 43.9764C123.244 43.7159 123.786 43.6472 124.295 43.7853C124.804 43.9234 125.237 44.2571 125.501 44.7136C125.764 45.1701 125.836 45.7123 125.702 46.2219C125.567 46.7315 125.236 47.1671 124.781 47.4337L113.916 53.7071C113.689 53.8383 113.438 53.9235 113.178 53.9578C112.918 53.992 112.654 53.9747 112.401 53.9069C112.148 53.839 111.91 53.7219 111.702 53.5622C111.495 53.4025 111.32 53.2034 111.189 52.9763V52.9765ZM119.093 73.0287H131.64C132.169 73.0287 132.677 73.239 133.051 73.6134C133.426 73.9877 133.636 74.4954 133.636 75.0248C133.636 75.5542 133.426 76.0619 133.051 76.4363C132.677 76.8106 132.169 77.0209 131.64 77.0209H119.093C118.564 77.0209 118.056 76.8106 117.682 76.4363C117.307 76.0619 117.097 75.5542 117.097 75.0248C117.097 74.4954 117.307 73.9877 117.682 73.6134C118.056 73.239 118.564 73.0287 119.093 73.0287ZM124.782 102.616C125.24 102.88 125.575 103.316 125.712 103.828C125.849 104.339 125.777 104.884 125.512 105.342C125.248 105.801 124.812 106.136 124.3 106.273C123.789 106.41 123.244 106.338 122.786 106.073L111.92 99.7998C111.465 99.5332 111.134 99.0976 111 98.588C110.865 98.0784 110.937 97.5362 111.201 97.0797C111.464 96.6232 111.898 96.2895 112.407 96.1514C112.915 96.0133 113.458 96.082 113.916 96.3425L124.782 102.616V102.616Z" fill="#57685D"/>
</svg>
