<svg width="30" height="30" viewBox="0 0 30 30" fill="none" xmlns="http://www.w3.org/2000/svg">
<g clip-path="url(#clip0_1430_160)">
<path d="M15 24.375C16.0359 24.375 16.875 25.2141 16.875 26.25V28.125C16.875 29.1609 16.0359 30 15 30C13.9641 30 13.125 29.1609 13.125 28.125V26.25C13.125 25.2141 13.9641 24.375 15 24.375ZM15 5.625C13.9641 5.625 13.125 4.78594 13.125 3.75V1.875C13.125 0.839062 13.9641 0 15 0C16.0359 0 16.875 0.839062 16.875 1.875V3.75C16.875 4.78594 16.0359 5.625 15 5.625ZM28.125 13.125C29.1609 13.125 30 13.9641 30 15C30 16.0359 29.1609 16.875 28.125 16.875H26.25C25.2141 16.875 24.375 16.0359 24.375 15C24.375 13.9641 25.2141 13.125 26.25 13.125H28.125ZM5.625 15C5.625 16.0359 4.78594 16.875 3.75 16.875H1.875C0.839062 16.875 0 16.0359 0 15C0 13.9641 0.839062 13.125 1.875 13.125H3.75C4.78594 13.125 5.625 13.9641 5.625 15ZM24.2803 21.6291L25.6059 22.9547C26.3381 23.6869 26.3381 24.8737 25.6059 25.6059C24.8737 26.3381 23.6869 26.3381 22.9547 25.6059L21.6291 24.2803C20.8969 23.5481 20.8969 22.3612 21.6291 21.6291C22.3612 20.8969 23.5481 20.8969 24.2803 21.6291ZM5.71969 8.37094L4.39406 7.04531C3.66187 6.31312 3.66187 5.12625 4.39406 4.39406C5.12625 3.66187 6.31312 3.66187 7.04531 4.39406L8.37094 5.71969C9.10312 6.45187 9.10312 7.63875 8.37094 8.37094C7.63875 9.10312 6.45187 9.10312 5.71969 8.37094ZM24.2803 8.37094C23.5481 9.10312 22.3612 9.10312 21.6291 8.37094C20.8969 7.63875 20.8969 6.45187 21.6291 5.71969L22.9547 4.39406C23.6869 3.66187 24.8737 3.66187 25.6059 4.39406C26.3381 5.12625 26.3381 6.31312 25.6059 7.04531L24.2803 8.37094ZM5.71969 21.6291C6.45187 20.8969 7.63875 20.8969 8.37094 21.6291C9.10312 22.3612 9.10312 23.5481 8.37094 24.2803L7.04531 25.6059C6.31312 26.3381 5.12625 26.3381 4.39406 25.6059C3.66187 24.8737 3.66187 23.6869 4.39406 22.9547L5.71969 21.6291Z" fill="white"/>
<path d="M15 7.5C10.8581 7.5 7.5 10.8581 7.5 15C7.5 19.1419 10.8581 22.5 15 22.5C19.1419 22.5 22.5 19.1419 22.5 15C22.5 10.8581 19.1419 7.5 15 7.5ZM15 19.6875C12.4116 19.6875 10.3125 17.5884 10.3125 15C10.3125 12.4116 12.4116 10.3125 15 10.3125C17.5884 10.3125 19.6875 12.4116 19.6875 15C19.6875 17.5884 17.5884 19.6875 15 19.6875Z" fill="white"/>
</g>
<defs>
<clipPath id="clip0_1430_160">
<rect width="30" height="30" fill="white"/>
</clipPath>
</defs>
</svg>
