<svg width="25" height="40" viewBox="0 0 25 40" fill="none" xmlns="http://www.w3.org/2000/svg">
<g clip-path="url(#clip0_1430_187)">
<path d="M13.8281 19.9766L24.4531 30.6016C25.1875 31.3359 25.1875 32.5234 24.4531 33.25L22.6875 35.0156C21.9531 35.75 20.7656 35.75 20.0391 35.0156L12.5 27.4922L4.96875 35.0234C4.23438 35.7578 3.04688 35.7578 2.32031 35.0234L0.546875 33.2578C-0.1875 32.5234 -0.1875 31.3359 0.546875 30.6094L11.1719 19.9844C11.9062 19.2422 13.0938 19.2422 13.8281 19.9766ZM11.1719 4.97656L0.546875 15.6016C-0.1875 16.3359 -0.1875 17.5234 0.546875 18.25L2.3125 20.0156C3.04688 20.75 4.23438 20.75 4.96094 20.0156L12.4922 12.4844L20.0234 20.0156C20.7578 20.75 21.9453 20.75 22.6719 20.0156L24.4375 18.25C25.1719 17.5156 25.1719 16.3281 24.4375 15.6016L13.8125 4.97656C13.0938 4.24219 11.9062 4.24219 11.1719 4.97656Z" fill="white"/>
</g>
<defs>
<clipPath id="clip0_1430_187">
<rect width="25" height="40" fill="white"/>
</clipPath>
</defs>
</svg>
