<svg width="30" height="30" viewBox="0 0 30 30" fill="none" xmlns="http://www.w3.org/2000/svg">
<g clip-path="url(#clip0_1739_551)">
<path d="M29.75 6.39261C29.6187 5.86351 28.9566 5.68421 28.571 6.06976L24.214 10.4268L20.2367 9.7641L19.574 5.78675L23.931 1.42972C24.3189 1.04183 24.132 0.380895 23.5994 0.248473C20.8232 -0.439418 17.7664 0.301793 15.5966 2.47093C13.274 4.79359 12.6347 8.16039 13.6015 11.0959L1.09819 23.5993C-0.366064 25.0635 -0.366064 27.4377 1.09819 28.902C2.56245 30.3662 4.93667 30.3662 6.40093 28.902L18.8937 16.4092C21.8304 17.3883 25.1908 16.742 27.5287 14.4041C29.7007 12.2321 30.4408 9.17054 29.75 6.39261ZM3.75015 27.6563C2.97378 27.6563 2.3439 27.0264 2.3439 26.25C2.3439 25.4731 2.97378 24.8438 3.75015 24.8438C4.52651 24.8438 5.1564 25.4731 5.1564 26.25C5.1564 27.0264 4.52651 27.6563 3.75015 27.6563Z" fill="white"/>
</g>
<defs>
<clipPath id="clip0_1739_551">
<rect width="30" height="30" fill="white"/>
</clipPath>
</defs>
</svg>
