<svg width="30" height="30" viewBox="0 0 30 30" fill="none" xmlns="http://www.w3.org/2000/svg">
<g clip-path="url(#clip0_1739_553)">
<path d="M28.125 16.875C28.125 12.1729 25.2375 8.14922 21.1412 6.46758L18.75 11.25V4.6875C18.75 4.43886 18.6512 4.2004 18.4754 4.02459C18.2996 3.84877 18.0611 3.75 17.8125 3.75H12.1875C11.9389 3.75 11.7004 3.84877 11.5246 4.02459C11.3488 4.2004 11.25 4.43886 11.25 4.6875V11.25L8.85879 6.46758C4.7625 8.14922 1.875 12.1729 1.875 16.875V20.625H28.125V16.875ZM29.0625 22.5H0.9375C0.68886 22.5 0.450403 22.5988 0.274587 22.7746C0.0987721 22.9504 0 23.1889 0 23.4375L0 25.3125C0 25.5611 0.0987721 25.7996 0.274587 25.9754C0.450403 26.1512 0.68886 26.25 0.9375 26.25H29.0625C29.3111 26.25 29.5496 26.1512 29.7254 25.9754C29.9012 25.7996 30 25.5611 30 25.3125V23.4375C30 23.1889 29.9012 22.9504 29.7254 22.7746C29.5496 22.5988 29.3111 22.5 29.0625 22.5Z" fill="white"/>
</g>
<defs>
<clipPath id="clip0_1739_553">
<rect width="30" height="30" fill="white"/>
</clipPath>
</defs>
</svg>
