<svg width="20" height="32" viewBox="0 0 20 32" fill="none" xmlns="http://www.w3.org/2000/svg">
<path d="M19.25 22H16.4066C15.9924 22 15.6566 22.3358 15.6566 22.75V25.928H8V18H13.25C13.6642 18 14 17.6642 14 17.25V14.75C14 14.3358 13.6642 14 13.25 14H8V10.0278C8 8.01113 9.53513 6.45988 11.862 6.45988C13.3406 6.45988 14.7294 7.17894 15.4653 7.63794C15.7872 7.83875 16.2083 7.76613 16.4457 7.47013L18.2266 5.25056C18.4911 4.92081 18.4315 4.43775 18.0941 4.183C17.0703 3.41 14.786 2 11.7457 2C6.62663 2 3 5.29637 3 9.87256V14H1.25C0.835813 14 0.5 14.3358 0.5 14.75V17.25C0.5 17.6642 0.835813 18 1.25 18H3V26H0.75C0.335813 26 0 26.3358 0 26.75V29.25C0 29.6642 0.335813 30 0.75 30H19.25C19.6642 30 20 29.6642 20 29.25V22.75C20 22.3358 19.6642 22 19.25 22Z" fill="white"/>
</svg>
