<svg width="30" height="30" viewBox="0 0 30 30" fill="none" xmlns="http://www.w3.org/2000/svg">
<g clip-path="url(#clip0_1430_178)">
<path d="M29.6283 3.94037C26.3836 1.48131 21.3905 0.0131836 16.2718 0.0131836C9.9399 0.0131836 4.78084 2.22381 2.11646 6.07787C0.864898 7.88818 0.173023 10.0313 0.0595852 12.4491C-0.0416648 14.6016 0.32021 16.9819 1.13396 19.5432C3.91365 11.2116 11.6752 4.68662 20.6246 4.68662C20.6246 4.68662 12.2508 6.89068 6.98584 13.7157C6.98302 13.7194 6.91271 13.8066 6.79177 13.9707C5.73427 15.3854 4.81271 16.9932 4.12365 18.8138C2.95552 21.5916 1.87365 25.4044 1.87365 29.9991H5.62365C5.62365 29.9991 5.05459 26.4188 6.04459 22.3004C7.6824 22.5216 9.14583 22.6313 10.464 22.6313C13.9111 22.6313 16.3636 21.8851 18.1805 20.2838C19.808 18.8485 20.7061 16.921 21.6558 14.8801C23.1071 11.7629 24.7515 8.22943 29.5261 5.50037C29.7999 5.34381 29.9761 5.06162 29.9968 4.74662C30.0174 4.43162 29.8787 4.12881 29.6274 3.9385L29.6283 3.94037Z" fill="white"/>
</g>
<defs>
<clipPath id="clip0_1430_178">
<rect width="30" height="30" fill="white"/>
</clipPath>
</defs>
</svg>
