<svg width="270" height="33" viewBox="0 0 270 33" fill="none" xmlns="http://www.w3.org/2000/svg">
<path d="M17.7383 10.4204C17.5329 8.87339 17.1074 7.53071 16.4619 6.39234C15.8163 5.22479 14.9507 4.33453 13.865 3.72157C12.8086 3.07942 11.5321 2.75834 10.0356 2.75834C8.59774 2.75834 7.39464 3.16698 6.4263 3.98427C5.48729 4.80155 5.01779 5.80857 5.01779 7.00531C5.01779 7.99773 5.29656 8.8588 5.85409 9.58852C6.44097 10.3182 7.27727 10.9896 8.36299 11.6025C9.44871 12.1863 10.7398 12.7993 12.2364 13.4414C13.3514 13.9085 14.4812 14.4339 15.6256 15.0176C16.77 15.5722 17.8264 16.2436 18.7947 17.0317C19.7631 17.8198 20.5407 18.7392 21.1275 19.79C21.7438 20.8116 22.0519 22.0375 22.0519 23.4678C22.0519 25.1607 21.597 26.664 20.6874 27.9774C19.8071 29.2909 18.5453 30.3125 16.902 31.0423C15.2588 31.772 13.3221 32.1368 11.092 32.1368C9.85952 32.1368 8.55372 31.9471 7.17456 31.5677C5.7954 31.2174 4.53362 30.6774 3.38921 29.9477L3.52126 31.8304H0.528189L0.440157 21.8916H2.94905C3.27184 24.3726 4.19617 26.2553 5.72204 27.5396C7.24792 28.7947 9.08191 29.4223 11.224 29.4223C12.3097 29.4223 13.2781 29.2326 14.129 28.8531C14.98 28.4445 15.6403 27.9045 16.1098 27.2331C16.6086 26.5326 16.858 25.7445 16.858 24.8688C16.858 23.7305 16.5059 22.7964 15.8016 22.0667C15.0974 21.337 14.2024 20.7094 13.1167 20.184C12.031 19.6586 10.9012 19.1478 9.72747 18.6516C8.407 18.097 7.15989 17.5133 5.98614 16.9003C4.81239 16.2582 3.77068 15.543 2.86102 14.7549C1.98071 13.9376 1.27646 13.0036 0.748267 11.9528C0.249422 10.902 0 9.66149 0 8.23124C0 7.38476 0.161391 6.4945 0.484173 5.56046C0.806955 4.59723 1.33514 3.70698 2.06874 2.88969C2.83168 2.07241 3.84404 1.40106 5.10582 0.875665C6.36761 0.350267 7.9375 0.0875678 9.81551 0.0875678C10.9893 0.0875678 12.2657 0.2627 13.6449 0.612964C15.0534 0.934042 16.2858 1.47403 17.3422 2.23294L17.1661 0.394049H20.2032V10.4204H17.7383Z" fill="#225530"/>
<path d="M40.8418 32.1368C38.0541 32.1368 35.6773 31.6698 33.7112 30.7358C31.7452 29.8017 30.146 28.5612 28.9135 27.0142C27.7104 25.438 26.8301 23.7013 26.2726 21.804C25.715 19.9067 25.4363 18.0095 25.4363 16.1122C25.4363 14.2733 25.7444 12.4198 26.3606 10.5517C26.9768 8.65447 27.9158 6.91774 29.1776 5.34155C30.4687 3.76535 32.0826 2.49564 34.0193 1.53241C35.956 0.569183 38.2302 0.0875678 40.8418 0.0875678C43.5121 0.0875678 45.8156 0.569183 47.7522 1.53241C49.7183 2.49564 51.3175 3.77995 52.55 5.38533C53.8117 6.96153 54.7361 8.68366 55.3229 10.5517C55.9392 12.4198 56.2473 14.2733 56.2473 16.1122C56.2473 17.9219 55.9392 19.7608 55.3229 21.6289C54.7067 23.497 53.7531 25.2337 52.4619 26.8391C51.2001 28.4153 49.6009 29.6996 47.6642 30.692C45.7275 31.6552 43.4534 32.1368 40.8418 32.1368ZM41.1939 29.4223C42.8372 29.4223 44.2163 29.0428 45.3314 28.2839C46.4758 27.525 47.4001 26.5326 48.1044 25.3067C48.8086 24.0807 49.3221 22.7381 49.6449 21.2786C49.997 19.79 50.1731 18.3306 50.1731 16.9003C50.1731 14.9447 49.9677 13.1204 49.5569 11.4274C49.1461 9.70527 48.5299 8.20205 47.7082 6.91774C46.9159 5.63344 45.9036 4.62642 44.6711 3.8967C43.4387 3.13779 42.0155 2.77293 40.4016 2.80212C38.7877 2.83131 37.4085 3.23995 36.2641 4.02805C35.1491 4.78696 34.2247 5.79397 33.4911 7.04909C32.7869 8.27502 32.2734 9.6323 31.9506 11.1209C31.6278 12.6096 31.4664 14.069 31.4664 15.4992C31.4664 16.9587 31.6425 18.4911 31.9946 20.0965C32.3467 21.7019 32.9043 23.2197 33.6672 24.6499C34.4301 26.0802 35.4278 27.2331 36.6603 28.1088C37.9221 28.9845 39.4333 29.4223 41.1939 29.4223Z" fill="#225530"/>
<path d="M59.751 31.4363V29.0282C60.5726 28.9991 61.2035 28.8677 61.6437 28.6342C62.0838 28.3715 62.3919 27.9337 62.568 27.3207C62.7441 26.6785 62.8321 25.8029 62.8321 24.6937V7.22422C62.8321 6.49451 62.8468 5.79397 62.8761 5.12263C62.9348 4.45129 62.9788 3.92589 63.0082 3.54644C62.5093 3.57563 61.9371 3.60481 61.2915 3.634C60.646 3.634 60.1325 3.6486 59.751 3.67779V0.788097H71.4592V3.19617C70.6669 3.22536 70.036 3.3713 69.5665 3.634C69.1263 3.86751 68.8182 4.29075 68.6422 4.90372C68.4661 5.51668 68.3781 6.39234 68.3781 7.53071V24.9564C68.3781 25.7445 68.3634 26.4742 68.3341 27.1456C68.3047 27.7877 68.2607 28.2985 68.202 28.678L74.8924 28.6342C76.653 28.6342 78.0175 28.0504 78.9859 26.8829C79.9542 25.6861 80.4384 23.8618 80.4384 21.41H82.9033L82.6392 31.4363H59.751Z" fill="#225530"/>
<path d="M84.2853 31.4363V28.9407C85.1069 28.9407 85.7672 28.7072 86.266 28.2401C86.7648 27.7731 87.1757 27.1602 87.4984 26.4013C87.8212 25.6132 88.1587 24.7375 88.5108 23.7743L97.2699 0H99.6468L109.198 24.2121C109.374 24.7083 109.609 25.4088 109.902 26.3137C110.196 27.2185 110.357 28.0066 110.387 28.678C110.885 28.6488 111.37 28.6196 111.839 28.5904C112.309 28.5612 112.719 28.5466 113.072 28.5466V31.4363H101.848V29.0282C102.757 29.0282 103.373 28.8385 103.696 28.4591C104.019 28.0796 104.151 27.5834 104.092 26.9704C104.063 26.3575 103.916 25.7299 103.652 25.0878L102.552 22.1105L92.3402 22.2856L91.3718 25.2191C91.1958 25.7153 90.9903 26.2845 90.7556 26.9267C90.5209 27.5396 90.2861 28.0942 90.0514 28.5904C90.5795 28.5612 91.1517 28.532 91.768 28.5028C92.4135 28.4737 92.927 28.4591 93.3085 28.4591V31.4363H84.2853ZM93.3085 19.4835H101.583L99.2066 13.0474C98.8545 12.055 98.517 11.0625 98.1943 10.0701C97.9008 9.04852 97.6514 8.11448 97.446 7.26801H97.358C97.1819 7.85178 96.9618 8.61069 96.6977 9.54473C96.463 10.4788 96.1255 11.5442 95.6854 12.7409L93.3085 19.4835Z" fill="#225530"/>
<path d="M115.329 31.4363V29.0282C116.151 28.9991 116.782 28.8677 117.222 28.6342C117.662 28.3715 117.97 27.9337 118.146 27.3207C118.323 26.6785 118.411 25.8029 118.411 24.6937V7.22422C118.411 6.49451 118.425 5.79397 118.455 5.12263C118.513 4.45129 118.557 3.92589 118.587 3.54644C118.088 3.57563 117.516 3.60481 116.87 3.634C116.224 3.634 115.711 3.6486 115.329 3.67779V0.788097C117.266 0.758909 119.203 0.744315 121.14 0.744315C123.106 0.715126 125.057 0.700532 126.994 0.700532C129.664 0.700532 131.923 1.00701 133.772 1.61998C135.65 2.23294 137.059 3.19617 137.998 4.50967C138.966 5.79397 139.435 7.48692 139.406 9.58852C139.377 10.7853 139.098 11.9528 138.57 13.0912C138.042 14.2295 137.205 15.2365 136.061 16.1122C134.916 16.9879 133.391 17.6738 131.483 18.17C132.041 18.4619 132.569 18.8851 133.068 19.4397C133.596 19.9943 134.08 20.6073 134.52 21.2786L136.897 24.9126C137.484 25.8175 138.027 26.5764 138.526 27.1893C139.025 27.7731 139.538 28.2256 140.066 28.5466C140.594 28.8385 141.225 28.9991 141.959 29.0282V31.4363H135.269C134.652 30.9401 134.065 30.3271 133.508 29.5974C132.98 28.8677 132.422 28.0212 131.835 27.058L128.666 22.0229C128.285 21.41 127.918 20.8408 127.566 20.3154C127.243 19.7608 126.876 19.2938 126.465 18.9143C125.996 18.9435 125.57 18.9581 125.189 18.9581C124.807 18.9581 124.397 18.9435 123.957 18.9143V24.8688C123.957 25.6861 123.942 26.4304 123.913 27.1018C123.883 27.7731 123.839 28.2985 123.78 28.678C124.103 28.6488 124.485 28.6342 124.925 28.6342C125.394 28.605 125.849 28.5904 126.289 28.5904C126.73 28.5612 127.082 28.5466 127.346 28.5466V31.4363H115.329ZM126.245 16.2873C127.889 16.2582 129.238 16.01 130.295 15.543C131.381 15.076 132.187 14.3463 132.716 13.3539C133.273 12.3614 133.552 11.0917 133.552 9.54473C133.552 8.23124 133.347 7.16585 132.936 6.34856C132.554 5.53128 132.026 4.90372 131.351 4.46588C130.706 4.02805 129.987 3.73616 129.194 3.59022C128.431 3.41509 127.669 3.32752 126.906 3.32752C126.143 3.32752 125.541 3.44428 125.101 3.67779C124.661 3.9113 124.353 4.33453 124.177 4.9475C124.03 5.53127 123.957 6.33397 123.957 7.35557V16.156C124.309 16.1852 124.675 16.2144 125.057 16.2436C125.438 16.2727 125.835 16.2873 126.245 16.2873Z" fill="#225530"/>
<path d="M193.813 32.1368C190.702 32.1368 188.032 31.4801 185.802 30.1666C183.572 28.8239 181.855 26.985 180.652 24.6499C179.449 22.2856 178.848 19.6149 178.848 16.6376C178.848 14.6236 179.156 12.6387 179.772 10.6831C180.417 8.69826 181.371 6.91774 182.633 5.34155C183.895 3.73617 185.479 2.46645 187.387 1.53241C189.323 0.569183 191.568 0.0875678 194.121 0.0875678C195.001 0.0875678 195.955 0.175134 196.982 0.350266C198.009 0.525398 199.021 0.788097 200.019 1.13836C201.046 1.45944 201.956 1.85349 202.748 2.32051L202.572 0.394049H205.653V10.5517H203.232C202.998 8.82961 202.484 7.39936 201.692 6.26099C200.899 5.12263 199.887 4.26156 198.655 3.67779C197.452 3.06482 196.102 2.75834 194.605 2.75834C193.079 2.75834 191.7 3.10861 190.468 3.80914C189.265 4.50967 188.238 5.4583 187.387 6.65504C186.565 7.85178 185.934 9.22365 185.494 10.7707C185.054 12.3177 184.834 13.9668 184.834 15.7182C184.834 18.2868 185.23 20.5927 186.022 22.6359C186.844 24.6499 188.003 26.2407 189.499 27.4083C190.996 28.5466 192.801 29.1158 194.913 29.1158C195.559 29.1158 196.278 29.072 197.07 28.9845C197.862 28.8677 198.655 28.6926 199.447 28.4591C200.239 28.2255 200.943 27.9483 201.56 27.6272V23.1175C201.56 22.3586 201.574 21.6143 201.604 20.8846C201.633 20.1549 201.662 19.5565 201.692 19.0895C201.193 19.1187 200.621 19.1478 199.975 19.177C199.33 19.177 198.816 19.1916 198.435 19.2208V16.3311H209.571V18.7392C208.954 18.7684 208.455 18.8851 208.074 19.0895C207.693 19.2646 207.384 19.5419 207.15 19.9213C206.915 20.2716 206.754 20.7094 206.665 21.2348C206.577 21.7602 206.533 22.3586 206.533 23.0299V29.9039H205.433C204.729 29.9039 203.951 30.0207 203.1 30.2542C202.249 30.4585 201.325 30.7212 200.327 31.0423C199.418 31.3342 198.405 31.5823 197.29 31.7866C196.175 32.0201 195.016 32.1368 193.813 32.1368Z" fill="#FCCA03"/>
<path d="M227.699 20.6219C227.699 19.3668 227.508 18.4619 227.127 17.9073C226.775 17.3527 226.246 17.0171 225.542 16.9003C224.867 16.7836 224.046 16.7398 223.077 16.769L221.273 16.8565V24.9564C221.273 25.7445 221.258 26.4742 221.229 27.1456C221.199 27.7877 221.155 28.2985 221.096 28.678L227.831 28.6342C228.858 28.6342 229.797 28.4445 230.648 28.065C231.499 27.6564 232.188 26.985 232.717 26.051C233.245 25.0878 233.509 23.7889 233.509 22.1543H235.93L235.71 31.4363H212.645V29.0282C213.467 28.9991 214.098 28.8677 214.538 28.6342C214.978 28.3715 215.286 27.9337 215.462 27.3207C215.639 26.6785 215.727 25.8029 215.727 24.6937V7.22422C215.727 6.49451 215.741 5.79397 215.771 5.12263C215.829 4.45129 215.873 3.92589 215.903 3.54644C215.404 3.57563 214.832 3.60481 214.186 3.634C213.54 3.634 213.027 3.6486 212.645 3.67779V0.788097H234.345L234.609 9.01933H232.188C232.188 7.35557 231.91 6.11505 231.352 5.29777C230.824 4.45129 230.134 3.88211 229.283 3.59022C228.432 3.29833 227.552 3.16698 226.642 3.19617L224.354 3.23995C223.561 3.26914 222.945 3.40049 222.505 3.634C222.065 3.86751 221.742 4.29075 221.537 4.90372C221.361 5.48749 221.273 6.36316 221.273 7.53071V14.2295L227.435 14.2733L227.215 10.4642H230.12V20.6219H227.699Z" fill="#FCCA03"/>
<path d="M263.706 31.9617L248.432 12.2155C248.11 11.7485 247.757 11.2815 247.376 10.8144C247.024 10.3182 246.672 9.82203 246.32 9.32582H246.276L246.364 24.6061C246.364 25.3942 246.349 26.1531 246.32 26.8829C246.32 27.6126 246.29 28.211 246.232 28.678C246.73 28.6488 247.303 28.6196 247.948 28.5904C248.594 28.5612 249.107 28.5466 249.489 28.5466V31.4363H240.113V29.0282C240.876 28.9991 241.463 28.8823 241.874 28.678C242.314 28.4445 242.637 28.065 242.842 27.5396C243.048 26.985 243.15 26.2553 243.15 25.3505L243.106 7.13666C243.106 6.43613 243.121 5.76478 243.15 5.12263C243.18 4.48048 243.209 3.95508 243.238 3.54644C242.769 3.57563 242.211 3.60481 241.566 3.634C240.92 3.634 240.407 3.6486 240.025 3.67779V0.788097H246.364L260.845 19.3959C261.461 20.184 261.989 20.8846 262.429 21.4975C262.899 22.1105 263.31 22.6651 263.662 23.1613H263.706V7.22422C263.706 6.49451 263.72 5.79397 263.75 5.12263C263.779 4.45129 263.808 3.92589 263.838 3.54644C263.368 3.57563 262.811 3.60481 262.165 3.634C261.52 3.634 260.991 3.6486 260.581 3.67779V0.788097H270V3.19617C269.208 3.22536 268.577 3.3713 268.107 3.634C267.667 3.86751 267.359 4.29075 267.183 4.90372C267.007 5.51668 266.919 6.39234 266.919 7.53071L266.875 31.9617H263.706Z" fill="#FCCA03"/>
<path d="M156.662 0.162626L149.826 10.7717L155.627 10.8809L150.245 18.8497L158.83 19.0134L148.754 33L173.906 12.1567L164.04 11.9725L172.305 0.462819L156.662 0.162626Z" fill="#FCCA03"/>
</svg>
