<svg width="1291" height="158" viewBox="0 0 1291 158" fill="none" xmlns="http://www.w3.org/2000/svg">
<path d="M84.8155 49.8916C83.8334 42.4847 81.7989 36.0561 78.7122 30.6058C75.6254 25.0157 71.4864 20.7532 66.295 17.8184C61.244 14.7439 55.1406 13.2066 47.985 13.2066C41.1099 13.2066 35.3573 15.1631 30.7272 19.0762C26.2374 22.9893 23.9925 27.8107 23.9925 33.5406C23.9925 38.2921 25.3254 42.4148 27.9912 45.9086C30.7974 49.4025 34.7961 52.6168 39.9875 55.5516C45.1788 58.3466 51.3523 61.2814 58.508 64.356C63.8396 66.592 69.2415 69.1075 74.7134 71.9026C80.1854 74.5579 85.2364 77.7722 89.8666 81.5455C94.4967 85.3188 98.2148 89.721 101.021 94.7521C103.967 99.6434 105.441 105.513 105.441 112.361C105.441 120.467 103.266 127.664 98.9164 133.953C94.7072 140.241 88.674 145.133 80.8168 148.627C72.9596 152.12 63.6993 153.867 53.036 153.867C47.1431 153.867 40.8995 152.959 34.305 151.142C27.7106 149.465 21.6774 146.88 16.2054 143.386L16.8368 152.4H2.52552L2.1046 104.814H14.1008C15.6442 116.693 20.0639 125.707 27.3598 131.856C34.6558 137.866 43.425 140.87 53.6674 140.87C58.8587 140.87 63.4889 139.962 67.5578 138.145C71.6267 136.189 74.7836 133.603 77.0285 130.389C79.4137 127.035 80.6063 123.262 80.6063 119.069C80.6063 113.619 78.9226 109.147 75.5553 105.653C72.1879 102.159 67.9085 99.1543 62.7172 96.6388C57.5258 94.1232 52.124 91.6775 46.5117 89.3018C40.1979 86.6465 34.2349 83.8514 28.6226 80.9166C23.0103 77.8421 18.0294 74.4181 13.6799 70.6448C9.47072 66.7318 6.10335 62.2597 3.57783 57.2286C1.19261 52.1975 0 46.258 0 39.4102C0 35.3574 0.771688 31.0949 2.31506 26.6228C3.85844 22.011 6.38396 17.7486 9.89164 13.8355C13.5396 9.92243 18.3802 6.70812 24.4134 4.19258C30.4466 1.67704 37.953 0.419264 46.9327 0.419264C52.5449 0.419264 58.6483 1.25778 65.2427 2.9348C71.9774 4.47208 77.8703 7.0575 82.9214 10.6911L82.0795 1.88666H96.6013V49.8916H84.8155Z" fill="white"/>
<path d="M195.284 153.867C181.955 153.867 170.59 151.631 161.19 147.159C151.789 142.687 144.142 136.748 138.249 129.341C132.497 121.794 128.288 113.479 125.622 104.395C122.956 95.3111 121.623 86.2272 121.623 77.1433C121.623 68.3389 123.096 59.4646 126.043 50.5205C128.989 41.4366 133.479 33.1213 139.512 25.5747C145.686 18.0281 153.403 11.9488 162.663 7.337C171.923 2.72518 182.797 0.419264 195.284 0.419264C208.052 0.419264 219.066 2.72518 228.326 7.337C237.727 11.9488 245.374 18.0979 251.267 25.7843C257.3 33.3309 261.72 41.5763 264.526 50.5205C267.472 59.4646 268.945 68.3389 268.945 77.1433C268.945 85.8079 267.472 94.6124 264.526 103.557C261.579 112.501 257.019 120.816 250.846 128.502C244.813 136.049 237.166 142.198 227.906 146.95C218.645 151.561 207.771 153.867 195.284 153.867ZM196.968 140.87C204.825 140.87 211.419 139.054 216.751 135.42C222.223 131.786 226.643 127.035 230.01 121.165C233.378 115.296 235.833 108.867 237.376 101.879C239.06 94.7521 239.902 87.7645 239.902 80.9166C239.902 71.5532 238.92 62.8187 236.955 54.7131C234.991 46.4677 232.045 39.2704 228.116 33.1213C224.328 26.9722 219.487 22.1508 213.594 18.6569C207.701 15.0234 200.896 13.2765 193.18 13.4162C185.463 13.556 178.868 15.5125 173.396 19.2858C168.065 22.9194 163.645 27.7408 160.137 33.7502C156.77 39.6198 154.315 46.1183 152.771 53.2457C151.228 60.373 150.456 67.3606 150.456 74.2085C150.456 81.1961 151.298 88.5331 152.982 96.2195C154.665 103.906 157.331 111.173 160.979 118.021C164.627 124.869 169.398 130.389 175.29 134.582C181.324 138.774 188.549 140.87 196.968 140.87Z" fill="white"/>
<path d="M285.698 150.513V138.984C289.627 138.844 292.643 138.215 294.748 137.097C296.853 135.839 298.326 133.743 299.168 130.808C300.01 127.734 300.431 123.541 300.431 118.23V34.5887C300.431 31.0949 300.501 27.7409 300.641 24.5265C300.922 21.3122 301.132 18.7967 301.272 16.9799C298.887 17.1197 296.151 17.2594 293.064 17.3992C289.978 17.3992 287.522 17.469 285.698 17.6088V3.77331H341.681V15.3029C337.892 15.4426 334.876 16.1414 332.631 17.3992C330.526 18.5172 329.053 20.5436 328.211 23.4784C327.369 26.4132 326.949 30.6058 326.949 36.0561V119.488C326.949 123.262 326.878 126.755 326.738 129.97C326.598 133.044 326.387 135.49 326.107 137.307L358.097 137.097C366.515 137.097 373.039 134.302 377.669 128.712C382.3 122.982 384.615 114.248 384.615 102.508H396.4L395.138 150.513H285.698Z" fill="white"/>
<path d="M403.009 150.513V138.564C406.937 138.564 410.094 137.446 412.479 135.21C414.865 132.974 416.829 130.04 418.372 126.406C419.916 122.633 421.529 118.44 423.213 113.828L465.094 0H476.459L522.129 115.925C522.971 118.3 524.093 121.654 525.497 125.987C526.9 130.319 527.671 134.092 527.812 137.307C530.197 137.167 532.512 137.027 534.757 136.887C537.002 136.748 538.966 136.678 540.65 136.678V150.513H486.982V138.984C491.332 138.984 494.278 138.075 495.822 136.259C497.365 134.442 497.996 132.066 497.716 129.131C497.575 126.196 496.874 123.192 495.611 120.117L490.35 105.862L441.523 106.701L436.893 120.746C436.051 123.122 435.069 125.847 433.946 128.922C432.824 131.856 431.701 134.512 430.579 136.887C433.104 136.748 435.84 136.608 438.787 136.468C441.874 136.328 444.329 136.259 446.153 136.259V150.513H403.009ZM446.153 93.2847H485.719L474.355 62.4693C472.671 57.7177 471.057 52.9661 469.514 48.2146C468.111 43.3232 466.918 38.8512 465.936 34.7983H465.515C464.673 37.5934 463.621 41.227 462.358 45.699C461.236 50.1711 459.622 55.2721 457.518 61.0019L446.153 93.2847Z" fill="white"/>
<path d="M551.446 150.513V138.984C555.374 138.844 558.391 138.215 560.495 137.097C562.6 135.839 564.073 133.743 564.915 130.808C565.757 127.734 566.178 123.541 566.178 118.23V34.5887C566.178 31.0949 566.248 27.7409 566.388 24.5265C566.669 21.3122 566.879 18.7967 567.02 16.9799C564.634 17.1197 561.898 17.2594 558.812 17.3992C555.725 17.3992 553.27 17.469 551.446 17.6088V3.77331C560.706 3.63356 569.966 3.56369 579.226 3.56369C588.627 3.42394 597.957 3.35406 607.218 3.35406C619.985 3.35406 630.789 4.82146 639.628 7.75626C648.608 10.6911 655.343 15.3029 659.833 21.5917C664.463 27.7408 666.708 35.8465 666.567 45.9086C666.427 51.6385 665.094 57.2286 662.569 62.6789C660.043 68.1293 656.044 72.9507 650.572 77.1433C645.1 81.3359 637.805 84.6201 628.685 86.9958C631.35 88.3934 633.876 90.4198 636.261 93.0751C638.787 95.7304 641.102 98.6652 643.206 101.879L654.571 119.279C657.377 123.611 659.973 127.245 662.358 130.179C664.743 132.974 667.199 135.141 669.724 136.678C672.25 138.075 675.266 138.844 678.774 138.984V150.513H646.784C643.838 148.137 641.032 145.203 638.366 141.709C635.84 138.215 633.174 134.162 630.368 129.55L615.215 105.443C613.391 102.508 611.637 99.7832 609.954 97.2676C608.41 94.6124 606.656 92.3763 604.692 90.5595C602.447 90.6993 600.413 90.7691 598.589 90.7691C596.765 90.7691 594.8 90.6993 592.696 90.5595V119.069C592.696 122.982 592.626 126.546 592.485 129.76C592.345 132.974 592.135 135.49 591.854 137.307C593.397 137.167 595.221 137.097 597.326 137.097C599.571 136.957 601.746 136.887 603.85 136.887C605.955 136.748 607.638 136.678 608.901 136.678V150.513H551.446ZM603.64 77.9818C611.497 77.8421 617.951 76.6542 623.002 74.4181C628.194 72.1821 632.052 68.6883 634.577 63.9367C637.243 59.1851 638.576 53.1059 638.576 45.699C638.576 39.4102 637.594 34.3092 635.63 30.3961C633.806 26.4831 631.28 23.4784 628.053 21.3821C624.966 19.2858 621.529 17.8883 617.741 17.1895C614.093 16.351 610.445 15.9318 606.797 15.9318C603.149 15.9318 600.272 16.4908 598.168 17.6088C596.063 18.7268 594.59 20.7532 593.748 23.688C593.047 26.4831 592.696 30.3263 592.696 35.2176V77.3529C594.38 77.4927 596.133 77.6324 597.957 77.7722C599.781 77.9119 601.675 77.9818 603.64 77.9818Z" fill="white"/>
<path d="M926.713 153.867C911.84 153.867 899.072 150.723 888.409 144.434C877.746 138.005 869.538 129.201 863.785 118.021C858.033 106.701 855.156 93.9136 855.156 79.6588C855.156 70.0159 856.63 60.5128 859.576 51.1494C862.663 41.6462 867.223 33.1213 873.256 25.5747C879.289 17.8883 886.866 11.8091 895.986 7.337C905.246 2.72518 915.979 0.419264 928.186 0.419264C932.395 0.419264 936.955 0.83852 941.866 1.67703C946.777 2.51554 951.617 3.77331 956.388 5.45035C961.299 6.98762 965.648 8.87428 969.436 11.1103L968.594 1.88666H983.327V50.5205H971.751C970.629 42.2751 968.174 35.4272 964.385 29.9769C960.597 24.5265 955.756 20.4038 949.863 17.6088C944.111 14.674 937.657 13.2066 930.501 13.2066C923.205 13.2066 916.611 14.8836 910.718 18.2377C904.965 21.5917 900.055 26.1337 895.986 31.8635C892.057 37.5934 889.04 44.1617 886.936 51.5686C884.831 58.9755 883.779 66.8715 883.779 75.2566C883.779 87.5549 885.673 98.5953 889.461 108.378C893.39 118.021 898.932 125.637 906.088 131.227C913.243 136.678 921.872 139.403 931.974 139.403C935.061 139.403 938.499 139.193 942.287 138.774C946.075 138.215 949.863 137.377 953.652 136.259C957.44 135.141 960.807 133.813 963.754 132.276V110.684C963.754 107.05 963.824 103.487 963.964 99.9928C964.105 96.499 964.245 93.6341 964.385 91.398C962 91.5378 959.264 91.6775 956.177 91.8173C953.091 91.8173 950.635 91.8872 948.811 92.0269V78.1914H1002.06V89.721C999.111 89.8608 996.726 90.4198 994.902 91.398C993.078 92.2365 991.605 93.5642 990.482 95.381C989.36 97.058 988.588 99.1543 988.167 101.67C987.746 104.185 987.536 107.05 987.536 110.265V143.176H982.274C978.907 143.176 975.189 143.735 971.12 144.853C967.051 145.832 962.631 147.089 957.861 148.627C953.511 150.024 948.671 151.212 943.339 152.19C938.008 153.308 932.465 153.867 926.713 153.867Z" fill="#FCCA03"/>
<path d="M1088.74 98.735C1088.74 92.7257 1087.83 88.3934 1086 85.7381C1084.32 83.0828 1081.79 81.4756 1078.43 80.9166C1075.2 80.3576 1071.27 80.148 1066.64 80.2877L1058.01 80.707V119.488C1058.01 123.262 1057.94 126.755 1057.8 129.97C1057.66 133.044 1057.45 135.49 1057.17 137.307L1089.37 137.097C1094.28 137.097 1098.77 136.189 1102.84 134.372C1106.91 132.415 1110.2 129.201 1112.73 124.729C1115.26 120.117 1116.52 113.898 1116.52 106.072H1128.09L1127.04 150.513H1016.76V138.984C1020.69 138.844 1023.71 138.215 1025.81 137.097C1027.91 135.839 1029.39 133.743 1030.23 130.808C1031.07 127.734 1031.49 123.541 1031.49 118.23V34.5887C1031.49 31.0949 1031.56 27.7409 1031.7 24.5265C1031.98 21.3122 1032.19 18.7967 1032.33 16.9799C1029.95 17.1197 1027.21 17.2594 1024.13 17.3992C1021.04 17.3992 1018.58 17.469 1016.76 17.6088V3.77331H1120.52L1121.78 43.1835H1110.2C1110.2 35.2176 1108.87 29.2781 1106.21 25.3651C1103.68 21.3122 1100.38 18.5871 1096.31 17.1895C1092.25 15.792 1088.04 15.1631 1083.69 15.3029L1072.74 15.5125C1068.95 15.6523 1066.01 16.2812 1063.9 17.3992C1061.8 18.5172 1060.26 20.5436 1059.27 23.4784C1058.43 26.2734 1058.01 30.466 1058.01 36.0561V68.1293L1087.47 68.3389L1086.42 50.1012H1100.31V98.735H1088.74Z" fill="#FCCA03"/>
<path d="M1260.9 153.029L1187.87 58.4864C1186.33 56.2503 1184.65 54.0143 1182.82 51.7783C1181.14 49.4025 1179.46 47.0267 1177.77 44.6509H1177.56L1177.98 117.811C1177.98 121.585 1177.91 125.218 1177.77 128.712C1177.77 132.206 1177.63 135.071 1177.35 137.307C1179.74 137.167 1182.47 137.027 1185.56 136.887C1188.65 136.748 1191.1 136.678 1192.93 136.678V150.513H1148.1V138.984C1151.75 138.844 1154.55 138.285 1156.52 137.307C1158.62 136.189 1160.16 134.372 1161.15 131.856C1162.13 129.201 1162.62 125.707 1162.62 121.375L1162.41 34.1695C1162.41 30.8154 1162.48 27.6011 1162.62 24.5265C1162.76 21.452 1162.9 18.9364 1163.04 16.9799C1160.8 17.1197 1158.13 17.2594 1155.04 17.3992C1151.96 17.3992 1149.5 17.469 1147.68 17.6088V3.77331H1177.98L1247.22 92.8654C1250.17 96.6388 1252.7 99.9928 1254.8 102.928C1257.05 105.862 1259.01 108.518 1260.69 110.893H1260.9V34.5887C1260.9 31.0949 1260.97 27.7409 1261.11 24.5265C1261.25 21.3122 1261.4 18.7967 1261.54 16.9799C1259.29 17.1197 1256.62 17.2594 1253.54 17.3992C1250.45 17.3992 1247.93 17.469 1245.96 17.6088V3.77331H1291V15.3029C1287.21 15.4426 1284.2 16.1414 1281.95 17.3992C1279.85 18.5172 1278.37 20.5436 1277.53 23.4784C1276.69 26.4132 1276.27 30.6058 1276.27 36.0561L1276.06 153.029H1260.9Z" fill="#FCCA03"/>
<path d="M749.076 0.778632L716.39 51.5738L744.129 52.0964L718.392 90.2499L759.442 91.0339L711.266 158L831.529 58.2049L784.354 57.3229L823.873 2.21592L749.076 0.778632Z" fill="#FCCA03"/>
</svg>
