<svg width="205" height="26" viewBox="0 0 205 26" fill="none" xmlns="http://www.w3.org/2000/svg">
<path d="M13.468 7.91178C13.312 6.7372 12.989 5.71776 12.4988 4.85345C12.0087 3.96697 11.3514 3.29104 10.5271 2.82564C9.72503 2.33808 8.75587 2.0943 7.61961 2.0943C6.52791 2.0943 5.61445 2.40456 4.87922 3.02509C4.16628 3.64563 3.8098 4.41021 3.8098 5.31884C3.8098 6.07235 4.02146 6.72612 4.44477 7.28017C4.89036 7.83421 5.52533 8.34394 6.34968 8.80934C7.17402 9.25257 8.15432 9.71797 9.29058 10.2055C10.1372 10.5601 10.995 10.959 11.8639 11.4023C12.7328 11.8233 13.5348 12.3331 14.2701 12.9314C15.0053 13.5298 15.5957 14.2279 16.0413 15.0257C16.5092 15.8014 16.7431 16.7322 16.7431 17.8181C16.7431 19.1035 16.3978 20.2449 15.7071 21.2421C15.0387 22.2394 14.0807 23.0151 12.833 23.5691C11.5854 24.1232 10.1149 24.4002 8.42168 24.4002C7.48593 24.4002 6.49449 24.2561 5.44735 23.968C4.40021 23.7021 3.44219 23.2921 2.57329 22.7381L2.67355 24.1675H0.401032L0.334193 16.6214H2.2391C2.48417 18.5051 3.18598 19.9346 4.34451 20.9097C5.50305 21.8627 6.89552 22.3391 8.52193 22.3391C9.34628 22.3391 10.0815 22.1951 10.7276 21.907C11.3737 21.5967 11.875 21.1867 12.2315 20.677C12.6102 20.1451 12.7996 19.5468 12.7996 18.8819C12.7996 18.0176 12.5323 17.3084 11.9975 16.7544C11.4628 16.2003 10.7833 15.7238 9.95896 15.3249C9.13462 14.926 8.27686 14.5382 7.38567 14.1614C6.38309 13.7403 5.43621 13.2971 4.54503 12.8317C3.65385 12.3442 2.86292 11.8012 2.17226 11.2028C1.50387 10.5823 0.969161 9.87311 0.568129 9.07528C0.189376 8.27745 0 7.33557 0 6.24964C0 5.60695 0.122538 4.93101 0.367613 4.22183C0.612688 3.49049 1.01372 2.81456 1.57071 2.19402C2.14998 1.57349 2.91862 1.06377 3.87664 0.664857C4.83466 0.265943 6.02662 0.0664867 7.45251 0.0664867C8.3437 0.0664867 9.31286 0.199457 10.36 0.465399C11.4294 0.70918 12.3652 1.11917 13.1672 1.69538L13.0335 0.299185H15.3395V7.91178H13.468Z" fill="white"/>
<path d="M31.0095 24.4002C28.8929 24.4002 27.0883 24.0456 25.5956 23.3364C24.1028 22.6273 22.8886 21.6854 21.9529 20.5108C21.0394 19.3141 20.371 17.9954 19.9477 16.5549C19.5244 15.1144 19.3127 13.6739 19.3127 12.2333C19.3127 10.8371 19.5467 9.42987 20.0145 8.01151C20.4824 6.57099 21.1953 5.25236 22.1534 4.05562C23.1337 2.85888 24.359 1.89484 25.8295 1.1635C27.2999 0.432157 29.0266 0.0664867 31.0095 0.0664867C33.0369 0.0664867 34.7859 0.432157 36.2563 1.1635C37.7491 1.89484 38.9633 2.86996 39.899 4.08886C40.8571 5.2856 41.5589 6.59315 42.0045 8.01151C42.4723 9.42987 42.7063 10.8371 42.7063 12.2333C42.7063 13.6074 42.4723 15.0036 42.0045 16.4219C41.5366 17.8403 40.8125 19.1589 39.8322 20.3778C38.8742 21.5746 37.6599 22.5497 36.1895 23.3032C34.719 24.0345 32.9924 24.4002 31.0095 24.4002ZM31.2768 22.3391C32.5245 22.3391 33.5716 22.051 34.4183 21.4748C35.2872 20.8986 35.989 20.1451 36.5237 19.2143C37.0584 18.2835 37.4483 17.2641 37.6934 16.156C37.9607 15.0257 38.0944 13.9176 38.0944 12.8317C38.0944 11.3469 37.9384 9.96175 37.6265 8.67637C37.3146 7.36882 36.8467 6.22748 36.2229 5.25236C35.6214 4.27724 34.8527 3.51265 33.917 2.95861C32.9812 2.3824 31.9007 2.10538 30.6753 2.12754C29.4499 2.1497 28.4028 2.45997 27.5339 3.05834C26.6873 3.63454 25.9855 4.39913 25.4285 5.35209C24.8938 6.28289 24.5039 7.31341 24.2588 8.44367C24.0137 9.57392 23.8912 10.682 23.8912 11.7679C23.8912 12.876 24.0249 14.0395 24.2922 15.2584C24.5596 16.4773 24.9829 17.6298 25.5621 18.7157C26.1414 19.8016 26.8989 20.677 27.8347 21.3419C28.7927 22.0067 29.9401 22.3391 31.2768 22.3391Z" fill="white"/>
<path d="M45.3665 23.8683V22.04C45.9903 22.0178 46.4693 21.9181 46.8035 21.7408C47.1377 21.5413 47.3717 21.2089 47.5053 20.7435C47.639 20.2559 47.7058 19.5911 47.7058 18.7489V5.48506C47.7058 4.93101 47.717 4.39913 47.7393 3.88941C47.7838 3.37968 47.8172 2.98077 47.8395 2.69267C47.4608 2.71483 47.0263 2.73699 46.5362 2.75915C46.046 2.75915 45.6561 2.77023 45.3665 2.79239V0.59837H54.256V2.42672C53.6545 2.44888 53.1755 2.55969 52.819 2.75915C52.4848 2.93645 52.2509 3.25779 52.1172 3.72319C51.9835 4.18859 51.9167 4.85345 51.9167 5.71776V18.9484C51.9167 19.5468 51.9055 20.1008 51.8833 20.6105C51.861 21.0981 51.8276 21.4859 51.783 21.774L56.8628 21.7408C58.1995 21.7408 59.2355 21.2975 59.9707 20.4111C60.706 19.5024 61.0736 18.1173 61.0736 16.2557H62.9451L62.7446 23.8683H45.3665Z" fill="white"/>
<path d="M63.9944 23.8683V21.9735C64.6182 21.9735 65.1195 21.7962 65.4983 21.4416C65.877 21.087 66.1889 20.6216 66.434 20.0454C66.6791 19.447 66.9353 18.7822 67.2026 18.0508L73.8531 0H75.6577L82.9097 18.3833C83.0434 18.76 83.2217 19.2919 83.4445 19.9789C83.6672 20.6659 83.7898 21.2643 83.8121 21.774C84.1908 21.7519 84.5584 21.7297 84.9149 21.7075C85.2714 21.6854 85.5833 21.6743 85.8506 21.6743V23.8683H77.3287V22.04C78.0194 22.04 78.4872 21.8959 78.7323 21.6078C78.9774 21.3197 79.0777 20.943 79.0331 20.4776C79.0108 20.0122 78.8994 19.5357 78.6989 19.0481L77.8634 16.7876L70.1101 16.9206L69.3749 19.1478C69.2412 19.5246 69.0853 19.9567 68.907 20.4443C68.7288 20.9097 68.5506 21.3308 68.3723 21.7075C68.7734 21.6854 69.2078 21.6632 69.6757 21.641C70.1658 21.6189 70.5557 21.6078 70.8454 21.6078V23.8683H63.9944ZM70.8454 14.793H77.1282L75.3235 9.90635C75.0562 9.15285 74.8 8.39934 74.5549 7.64584C74.3321 6.87018 74.1427 6.161 73.9868 5.5183H73.9199C73.7863 5.96154 73.6192 6.53775 73.4186 7.24693C73.2404 7.95611 72.9842 8.76501 72.65 9.67365L70.8454 14.793Z" fill="white"/>
<path d="M87.5649 23.8683V22.04C88.1888 22.0178 88.6678 21.9181 89.002 21.7408C89.3362 21.5413 89.5701 21.2089 89.7038 20.7435C89.8375 20.2559 89.9043 19.5911 89.9043 18.7489V5.48506C89.9043 4.93101 89.9154 4.39913 89.9377 3.88941C89.9823 3.37968 90.0157 2.98077 90.038 2.69267C89.6592 2.71483 89.2248 2.73699 88.7346 2.75915C88.2445 2.75915 87.8546 2.77023 87.5649 2.79239V0.59837C89.0354 0.576209 90.5058 0.565128 91.9763 0.565128C93.469 0.542966 94.9506 0.531886 96.4211 0.531886C98.4485 0.531886 100.164 0.764585 101.568 1.22998C102.994 1.69538 104.063 2.42672 104.776 3.42401C105.511 4.39913 105.868 5.68451 105.845 7.28017C105.823 8.1888 105.611 9.07528 105.21 9.93959C104.809 10.8039 104.174 11.5685 103.305 12.2333C102.437 12.8982 101.278 13.419 99.8298 13.7958C100.253 14.0174 100.654 14.3387 101.033 14.7598C101.434 15.1809 101.802 15.6463 102.136 16.156L103.94 18.9151C104.386 19.6022 104.798 20.1784 105.177 20.6438C105.556 21.087 105.946 21.4305 106.347 21.6743C106.748 21.8959 107.227 22.0178 107.784 22.04V23.8683H102.704C102.236 23.4916 101.79 23.0262 101.367 22.4721C100.966 21.9181 100.543 21.2754 100.097 20.544L97.691 16.7211C97.4014 16.2557 97.1229 15.8236 96.8555 15.4247C96.6105 15.0036 96.3319 14.649 96.02 14.3609C95.6636 14.383 95.3405 14.3941 95.0509 14.3941C94.7612 14.3941 94.4493 14.383 94.1151 14.3609V18.8819C94.1151 19.5024 94.104 20.0676 94.0817 20.5773C94.0594 21.087 94.026 21.4859 93.9815 21.774C94.2265 21.7519 94.5162 21.7408 94.8504 21.7408C95.2068 21.7186 95.5522 21.7075 95.8864 21.7075C96.2206 21.6854 96.4879 21.6743 96.6884 21.6743V23.8683H87.5649ZM95.8529 12.3663C97.1006 12.3442 98.1255 12.1558 98.9275 11.8012C99.7519 11.4466 100.365 10.8926 100.766 10.139C101.189 9.38554 101.401 8.4215 101.401 7.24693C101.401 6.24964 101.245 5.44074 100.933 4.8202C100.643 4.19967 100.242 3.72319 99.7296 3.39076C99.2394 3.05834 98.6936 2.83672 98.092 2.72591C97.5128 2.59294 96.9335 2.52645 96.3542 2.52645C95.775 2.52645 95.3182 2.6151 94.984 2.79239C94.6498 2.96969 94.4159 3.29104 94.2822 3.75643C94.1708 4.19967 94.1151 4.80912 94.1151 5.58479V12.2666C94.3825 12.2887 94.661 12.3109 94.9506 12.3331C95.2403 12.3552 95.541 12.3663 95.8529 12.3663Z" fill="white"/>
<path d="M147.154 24.4002C144.793 24.4002 142.765 23.9016 141.072 22.9043C139.379 21.8848 138.075 20.4886 137.162 18.7157C136.248 16.9206 135.792 14.8928 135.792 12.6323C135.792 11.1031 136.026 9.59608 136.493 8.11124C136.984 6.60423 137.708 5.25236 138.666 4.05562C139.624 2.83672 140.827 1.87268 142.275 1.1635C143.745 0.432157 145.45 0.0664867 147.388 0.0664867C148.057 0.0664867 148.781 0.132972 149.56 0.265943C150.34 0.398913 151.109 0.59837 151.866 0.864313C152.646 1.10809 153.337 1.40728 153.938 1.76187L153.805 0.299185H156.144V8.01151H154.306C154.128 6.70396 153.738 5.61803 153.136 4.75372C152.535 3.88941 151.766 3.23563 150.83 2.79239C149.917 2.327 148.892 2.0943 147.756 2.0943C146.597 2.0943 145.55 2.36024 144.614 2.89212C143.701 3.42401 142.921 4.14427 142.275 5.0529C141.651 5.96154 141.172 7.00315 140.838 8.17772C140.504 9.3523 140.337 10.6044 140.337 11.9342C140.337 13.8844 140.637 15.6352 141.239 17.1865C141.863 18.7157 142.743 19.9235 143.879 20.81C145.015 21.6743 146.386 22.1064 147.99 22.1064C148.48 22.1064 149.026 22.0732 149.627 22.0067C150.229 21.9181 150.83 21.7851 151.432 21.6078C152.033 21.4305 152.568 21.22 153.036 20.9762V17.5522C153.036 16.976 153.047 16.4109 153.069 15.8568C153.092 15.3028 153.114 14.8484 153.136 14.4939C152.758 14.516 152.323 14.5382 151.833 14.5603C151.343 14.5603 150.953 14.5714 150.663 14.5936V12.3996H159.118V14.2279C158.651 14.2501 158.272 14.3387 157.982 14.4939C157.692 14.6268 157.459 14.8374 157.28 15.1255C157.102 15.3914 156.98 15.7238 156.913 16.1227C156.846 16.5217 156.812 16.976 156.812 17.4857V22.7048H155.977C155.442 22.7048 154.852 22.7935 154.206 22.9708C153.56 23.1259 152.858 23.3253 152.1 23.5691C151.41 23.7907 150.641 23.9791 149.794 24.1343C148.948 24.3116 148.068 24.4002 147.154 24.4002Z" fill="#FCCA03"/>
<path d="M172.882 15.6573C172.882 14.7044 172.738 14.0174 172.448 13.5963C172.181 13.1752 171.78 12.9204 171.245 12.8317C170.732 12.7431 170.109 12.7098 169.373 12.732L168.003 12.7985V18.9484C168.003 19.5468 167.992 20.1008 167.97 20.6105C167.948 21.0981 167.914 21.4859 167.87 21.774L172.983 21.7408C173.762 21.7408 174.475 21.5967 175.122 21.3086C175.768 20.9984 176.291 20.4886 176.692 19.7795C177.093 19.0481 177.294 18.0619 177.294 16.8208H179.132L178.965 23.8683H161.453V22.04C162.077 22.0178 162.556 21.9181 162.89 21.7408C163.224 21.5413 163.458 21.2089 163.592 20.7435C163.726 20.2559 163.792 19.5911 163.792 18.7489V5.48506C163.792 4.93101 163.804 4.39913 163.826 3.88941C163.87 3.37968 163.904 2.98077 163.926 2.69267C163.547 2.71483 163.113 2.73699 162.623 2.75915C162.133 2.75915 161.743 2.77023 161.453 2.79239V0.59837H177.929L178.129 6.84801H176.291C176.291 5.58479 176.08 4.64291 175.656 4.02238C175.255 3.37968 174.732 2.94753 174.086 2.72591C173.439 2.50429 172.771 2.40456 172.08 2.42672L170.343 2.45997C169.741 2.48213 169.273 2.58186 168.939 2.75915C168.605 2.93645 168.36 3.25779 168.204 3.72319C168.07 4.16643 168.003 4.83128 168.003 5.71776V10.8039L172.682 10.8371L172.515 7.94502H174.721V15.6573H172.882Z" fill="#FCCA03"/>
<path d="M200.221 24.2672L188.625 9.27474C188.379 8.92015 188.112 8.56556 187.822 8.21097C187.555 7.83422 187.288 7.45746 187.02 7.08071H186.987L187.054 18.6824C187.054 19.2808 187.043 19.857 187.02 20.4111C187.02 20.9651 186.998 21.4194 186.954 21.774C187.332 21.7519 187.767 21.7297 188.257 21.7075C188.747 21.6854 189.137 21.6743 189.427 21.6743V23.8683H182.308V22.04C182.888 22.0178 183.333 21.9292 183.645 21.774C183.979 21.5967 184.224 21.3086 184.38 20.9097C184.536 20.4886 184.614 19.9346 184.614 19.2476L184.581 5.41857C184.581 4.88669 184.592 4.37697 184.614 3.88941C184.636 3.40185 184.659 3.00293 184.681 2.69267C184.325 2.71483 183.901 2.73699 183.411 2.75915C182.921 2.75915 182.531 2.77023 182.241 2.79239V0.59837H187.054L198.049 14.7266C198.517 15.3249 198.918 15.8568 199.252 16.3222C199.608 16.7876 199.92 17.2087 200.188 17.5854H200.221V5.48506C200.221 4.93101 200.232 4.39913 200.254 3.88941C200.277 3.37968 200.299 2.98077 200.321 2.69267C199.965 2.71483 199.542 2.73699 199.051 2.75915C198.561 2.75915 198.16 2.77023 197.848 2.79239V0.59837H205V2.42672C204.398 2.44888 203.919 2.55969 203.563 2.75915C203.229 2.93645 202.995 3.25779 202.861 3.72319C202.727 4.18859 202.661 4.85345 202.661 5.71776L202.627 24.2672H200.221Z" fill="#FCCA03"/>
<path d="M118.947 0.123475L113.757 8.17854L118.161 8.26142L114.075 14.3118L120.593 14.4361L112.943 25.0556L132.04 9.2301L124.549 9.09024L130.824 0.3514L118.947 0.123475Z" fill="#FCCA03"/>
</svg>
