<svg width="205" height="26" viewBox="0 0 205 26" fill="none" xmlns="http://www.w3.org/2000/svg">
<path d="M13.468 8.0837C13.312 6.8836 12.989 5.842 12.4988 4.95891C12.0087 4.05317 11.3514 3.36255 10.5271 2.88704C9.72503 2.38888 8.75587 2.1398 7.61961 2.1398C6.52791 2.1398 5.61445 2.45681 4.87922 3.09083C4.16628 3.72484 3.8098 4.50604 3.8098 5.43442C3.8098 6.2043 4.02146 6.87228 4.44477 7.43836C4.89036 8.00445 5.52533 8.52525 6.34968 9.00076C7.17402 9.45363 8.15432 9.92914 9.29058 10.4273C10.1372 10.7896 10.995 11.1972 11.8639 11.65C12.7328 12.0803 13.5348 12.6011 14.2701 13.2124C15.0053 13.8238 15.5957 14.5371 16.0413 15.3522C16.5092 16.1448 16.7431 17.0958 16.7431 18.2053C16.7431 19.5186 16.3978 20.6848 15.7071 21.7037C15.0387 22.7227 14.0807 23.5152 12.833 24.0813C11.5854 24.6474 10.1149 24.9304 8.42168 24.9304C7.48593 24.9304 6.49449 24.7832 5.44735 24.4889C4.40021 24.2171 3.44219 23.7982 2.57329 23.2321L2.67355 24.6926H0.401032L0.334193 16.9826H2.2391C2.48417 18.9073 3.18598 20.3678 4.34452 21.3641C5.50305 22.3377 6.89552 22.8246 8.52193 22.8246C9.34628 22.8246 10.0815 22.6774 10.7276 22.383C11.3737 22.066 11.875 21.6471 12.2315 21.1263C12.6102 20.5829 12.7996 19.9715 12.7996 19.2922C12.7996 18.4091 12.5323 17.6845 11.9975 17.1184C11.4628 16.5523 10.7833 16.0655 9.95896 15.6579C9.13462 15.2503 8.27686 14.8541 7.38568 14.4691C6.38309 14.0389 5.43621 13.5861 4.54503 13.1105C3.65385 12.6124 2.86292 12.0576 2.17226 11.4462C1.50387 10.8122 0.969161 10.0876 0.568129 9.27248C0.189376 8.45732 0 7.49497 0 6.38545C0 5.72879 0.122538 5.03816 0.367613 4.31357C0.612688 3.56634 1.01372 2.87572 1.57071 2.2417C2.14998 1.60768 2.91862 1.08689 3.87664 0.679304C4.83467 0.271722 6.02662 0.0679314 7.45251 0.0679314C8.3437 0.0679314 9.31286 0.203791 10.36 0.475512C11.4294 0.72459 12.3652 1.14349 13.1672 1.73222L13.0335 0.305686H15.3395V8.0837H13.468Z" fill="#225530"/>
<path d="M31.0095 24.9304C28.8929 24.9304 27.0883 24.5681 25.5956 23.8435C24.1028 23.1189 22.8886 22.1566 21.9529 20.9565C21.0394 19.7337 20.371 18.3865 19.9477 16.9146C19.5244 15.4428 19.3127 13.971 19.3127 12.4992C19.3127 11.0726 19.5467 9.63478 20.0145 8.1856C20.4824 6.71377 21.1953 5.36649 22.1534 4.14375C23.1337 2.921 24.359 1.93601 25.8295 1.18878C27.2999 0.441548 29.0266 0.0679314 31.0095 0.0679314C33.0369 0.0679314 34.7859 0.441548 36.2563 1.18878C37.7491 1.93601 38.9633 2.93232 39.899 4.17771C40.8571 5.40046 41.5589 6.73642 42.0045 8.1856C42.4723 9.63478 42.7063 11.0726 42.7063 12.4992C42.7063 13.9031 42.4723 15.3296 42.0045 16.7788C41.5366 18.228 40.8125 19.5752 39.8322 20.8206C38.8742 22.0434 37.6599 23.0397 36.1895 23.8096C34.719 24.5568 32.9924 24.9304 31.0095 24.9304ZM31.2769 22.8246C32.5245 22.8246 33.5716 22.5302 34.4183 21.9415C35.2872 21.3527 35.989 20.5829 36.5237 19.6318C37.0584 18.6808 37.4483 17.6392 37.6934 16.5071C37.9607 15.3522 38.0944 14.2201 38.0944 13.1105C38.0944 11.5934 37.9384 10.1782 37.6265 8.8649C37.3146 7.52894 36.8467 6.3628 36.2229 5.36649C35.6214 4.37018 34.8527 3.58898 33.917 3.0229C32.9812 2.43417 31.9007 2.15113 30.6753 2.17377C29.4499 2.19641 28.4028 2.51342 27.5339 3.12479C26.6873 3.71352 25.9855 4.49472 25.4285 5.46839C24.8938 6.41941 24.5039 7.47233 24.2588 8.62714C24.0137 9.78196 23.8912 10.9141 23.8912 12.0237C23.8912 13.1558 24.0249 14.3446 24.2922 15.59C24.5596 16.8354 24.9829 18.0128 25.5621 19.1224C26.1414 20.2319 26.8989 21.1263 27.8347 21.8056C28.7927 22.4849 29.9401 22.8246 31.2769 22.8246Z" fill="#225530"/>
<path d="M45.3665 24.387V22.5189C45.9903 22.4962 46.4693 22.3943 46.8035 22.2132C47.1377 22.0094 47.3717 21.6698 47.5053 21.1942C47.639 20.6961 47.7059 20.0168 47.7059 19.1563V5.60425C47.7059 5.03816 47.717 4.49472 47.7393 3.97392C47.7838 3.45312 47.8172 3.04554 47.8395 2.75118C47.4608 2.77382 47.0263 2.79646 46.5362 2.81911C46.046 2.81911 45.6561 2.83043 45.3665 2.85307V0.611372H54.256V2.47945C53.6545 2.5021 53.1755 2.61531 52.819 2.81911C52.4848 3.00025 52.2509 3.32858 52.1172 3.8041C51.9835 4.27961 51.9167 4.95891 51.9167 5.842V19.3601C51.9167 19.9715 51.9055 20.5376 51.8833 21.0584C51.861 21.5565 51.8276 21.9528 51.783 22.2472L56.8628 22.2132C58.1995 22.2132 59.2355 21.7603 59.9707 20.8546C60.706 19.9262 61.0736 18.511 61.0736 16.6089H62.9451L62.7446 24.387H45.3665Z" fill="#225530"/>
<path d="M63.9944 24.387V22.4509C64.6182 22.4509 65.1195 22.2698 65.4983 21.9075C65.877 21.5452 66.1889 21.0697 66.434 20.481C66.6791 19.8696 66.9353 19.1903 67.2026 18.4431L73.8531 0H75.6577L82.9097 18.7827C83.0434 19.1677 83.2217 19.7111 83.4445 20.413C83.6672 21.115 83.7898 21.7264 83.8121 22.2472C84.1908 22.2245 84.5584 22.2019 84.9149 22.1792C85.2714 22.1566 85.5833 22.1453 85.8506 22.1453V24.387H77.3287V22.5189C78.0194 22.5189 78.4872 22.3717 78.7323 22.0773C78.9774 21.783 79.0777 21.398 79.0331 20.9225C79.0108 20.447 78.8994 19.9602 78.6989 19.462L77.8634 17.1524L70.1101 17.2883L69.3749 19.5639C69.2412 19.9489 69.0853 20.3904 68.907 20.8886C68.7288 21.3641 68.5506 21.7943 68.3723 22.1792C68.7734 22.1566 69.2078 22.1339 69.6757 22.1113C70.1658 22.0887 70.5557 22.0773 70.8454 22.0773V24.387H63.9944ZM70.8454 15.1145H77.1282L75.3235 10.1216C75.0562 9.35173 74.8 8.58186 74.5549 7.81198C74.3321 7.01946 74.1427 6.29487 73.9868 5.63821H73.9199C73.7863 6.09108 73.6192 6.67981 73.4186 7.4044C73.2404 8.12899 72.9842 8.95547 72.65 9.88385L70.8454 15.1145Z" fill="#225530"/>
<path d="M87.5649 24.387V22.5189C88.1888 22.4962 88.6678 22.3943 89.002 22.2132C89.3362 22.0094 89.5701 21.6698 89.7038 21.1942C89.8375 20.6961 89.9043 20.0168 89.9043 19.1563V5.60425C89.9043 5.03816 89.9154 4.49472 89.9377 3.97392C89.9823 3.45312 90.0157 3.04554 90.038 2.75118C89.6592 2.77382 89.2248 2.79646 88.7346 2.81911C88.2445 2.81911 87.8546 2.83043 87.5649 2.85307V0.611372C89.0354 0.588729 90.5058 0.577408 91.9763 0.577408C93.469 0.554765 94.9506 0.543443 96.4211 0.543443C98.4485 0.543443 100.164 0.781199 101.568 1.25671C102.994 1.73222 104.063 2.47946 104.776 3.49841C105.511 4.49472 105.868 5.80804 105.845 7.43836C105.823 8.36674 105.611 9.27248 105.21 10.1556C104.809 11.0387 104.174 11.8199 103.305 12.4992C102.437 13.1785 101.278 13.7106 99.8299 14.0955C100.253 14.322 100.654 14.6503 101.033 15.0805C101.434 15.5107 101.802 15.9863 102.136 16.5071L103.94 19.3262C104.386 20.0281 104.798 20.6168 105.177 21.0923C105.556 21.5452 105.946 21.8962 106.347 22.1453C106.748 22.3717 107.227 22.4962 107.784 22.5189V24.387H102.704C102.236 24.002 101.79 23.5265 101.367 22.9604C100.966 22.3943 100.543 21.7377 100.097 20.9904L97.691 17.0845C97.4014 16.6089 97.1229 16.1674 96.8555 15.7598C96.6105 15.3296 96.332 14.9673 96.02 14.6729C95.6636 14.6956 95.3405 14.7069 95.0509 14.7069C94.7612 14.7069 94.4493 14.6956 94.1151 14.6729V19.2922C94.1151 19.9262 94.104 20.5036 94.0817 21.0244C94.0594 21.5452 94.026 21.9528 93.9815 22.2472C94.2265 22.2245 94.5162 22.2132 94.8504 22.2132C95.2068 22.1906 95.5522 22.1792 95.8864 22.1792C96.2206 22.1566 96.4879 22.1453 96.6884 22.1453V24.387H87.5649ZM95.8529 12.635C97.1006 12.6124 98.1255 12.4199 98.9275 12.0576C99.7519 11.6953 100.365 11.1292 100.766 10.3594C101.189 9.58949 101.401 8.6045 101.401 7.4044C101.401 6.38545 101.245 5.55896 100.933 4.92495C100.643 4.29093 100.242 3.8041 99.7296 3.46444C99.2394 3.12479 98.6936 2.89836 98.092 2.78514C97.5128 2.64928 96.9335 2.58135 96.3542 2.58135C95.775 2.58135 95.3182 2.67192 94.984 2.85307C94.6499 3.03422 94.4159 3.36255 94.2822 3.83806C94.1708 4.29093 94.1151 4.91362 94.1151 5.70614V12.5331C94.3825 12.5558 94.661 12.5784 94.9506 12.6011C95.2403 12.6237 95.541 12.635 95.8529 12.635Z" fill="#225530"/>
<path d="M147.154 24.9304C144.793 24.9304 142.765 24.4209 141.072 23.402C139.379 22.3604 138.075 20.9338 137.162 19.1224C136.248 17.2883 135.792 15.2164 135.792 12.9067C135.792 11.3444 136.026 9.8046 136.493 8.28749C136.984 6.74774 137.708 5.36649 138.666 4.14375C139.624 2.89836 140.827 1.91337 142.275 1.18878C143.745 0.441548 145.45 0.0679314 147.388 0.0679314C148.057 0.0679314 148.781 0.135861 149.56 0.271722C150.34 0.407582 151.109 0.611372 151.866 0.883094C152.646 1.13217 153.337 1.43786 153.938 1.80015L153.805 0.305686H156.144V8.1856H154.306C154.128 6.84963 153.738 5.74011 153.136 4.85701C152.535 3.97392 151.766 3.30594 150.83 2.85307C149.917 2.37756 148.892 2.1398 147.756 2.1398C146.597 2.1398 145.55 2.41152 144.614 2.95497C143.701 3.49841 142.921 4.23432 142.275 5.1627C141.651 6.09108 141.172 7.15532 140.838 8.35542C140.504 9.55552 140.337 10.8349 140.337 12.1935C140.337 14.1861 140.637 15.9749 141.239 17.56C141.863 19.1224 142.743 20.3564 143.879 21.2622C145.015 22.1453 146.386 22.5868 147.99 22.5868C148.48 22.5868 149.026 22.5528 149.627 22.4849C150.229 22.3943 150.83 22.2585 151.432 22.0773C152.033 21.8962 152.568 21.6811 153.036 21.432V17.9336C153.036 17.3449 153.047 16.7675 153.069 16.2014C153.092 15.6353 153.114 15.1711 153.136 14.8088C152.758 14.8314 152.323 14.8541 151.833 14.8767C151.343 14.8767 150.953 14.888 150.663 14.9107V12.669H159.118V14.5371C158.651 14.5597 158.272 14.6503 157.982 14.8088C157.692 14.9447 157.459 15.1598 157.28 15.4541C157.102 15.7259 156.98 16.0655 156.913 16.4731C156.846 16.8807 156.812 17.3449 156.812 17.8657V23.1982H155.977C155.442 23.1982 154.852 23.2888 154.206 23.4699C153.56 23.6284 152.858 23.8322 152.1 24.0813C151.41 24.3077 150.641 24.5002 149.794 24.6587C148.948 24.8398 148.068 24.9304 147.154 24.9304Z" fill="#FCCA03"/>
<path d="M172.882 15.9976C172.882 15.0239 172.738 14.322 172.448 13.8917C172.181 13.4615 171.78 13.2011 171.245 13.1105C170.732 13.02 170.109 12.986 169.373 13.0086L168.003 13.0766V19.3601C168.003 19.9715 167.992 20.5376 167.97 21.0584C167.948 21.5565 167.914 21.9528 167.87 22.2472L172.983 22.2132C173.762 22.2132 174.475 22.066 175.122 21.7716C175.768 21.4546 176.291 20.9338 176.692 20.2093C177.093 19.462 177.294 18.4544 177.294 17.1864H179.132L178.965 24.387H161.453V22.5189C162.077 22.4962 162.556 22.3943 162.89 22.2132C163.224 22.0094 163.458 21.6698 163.592 21.1942C163.726 20.6961 163.792 20.0168 163.792 19.1563V5.60425C163.792 5.03816 163.804 4.49472 163.826 3.97392C163.87 3.45312 163.904 3.04554 163.926 2.75118C163.547 2.77382 163.113 2.79646 162.623 2.81911C162.133 2.81911 161.743 2.83043 161.453 2.85307V0.611372H177.929L178.129 6.99682H176.291C176.291 5.70614 176.08 4.7438 175.656 4.10978C175.255 3.45312 174.732 3.01157 174.086 2.78514C173.439 2.55871 172.771 2.45681 172.08 2.47945L170.343 2.51342C169.741 2.53606 169.273 2.63796 168.939 2.81911C168.605 3.00025 168.36 3.32858 168.204 3.8041C168.07 4.25696 168.003 4.93627 168.003 5.842V11.0387L172.682 11.0726L172.515 8.11767H174.721V15.9976H172.882Z" fill="#FCCA03"/>
<path d="M200.221 24.7945L188.625 9.47627C188.379 9.11398 188.112 8.75168 187.822 8.38939C187.555 8.00445 187.288 7.61951 187.02 7.23457H186.987L187.054 19.0884C187.054 19.6998 187.043 20.2885 187.02 20.8546C187.02 21.4207 186.998 21.8849 186.954 22.2472C187.332 22.2245 187.767 22.2019 188.257 22.1792C188.747 22.1566 189.137 22.1453 189.427 22.1453V24.387H182.308V22.5189C182.888 22.4962 183.333 22.4057 183.645 22.2472C183.979 22.066 184.224 21.7716 184.38 21.3641C184.536 20.9338 184.614 20.3678 184.614 19.6658L184.581 5.53632C184.581 4.99287 184.592 4.47208 184.614 3.97392C184.636 3.47577 184.659 3.06818 184.681 2.75118C184.325 2.77382 183.901 2.79646 183.411 2.81911C182.921 2.81911 182.531 2.83043 182.241 2.85307V0.611372H187.054L198.049 15.0466C198.517 15.6579 198.918 16.2014 199.252 16.6769C199.608 17.1524 199.92 17.5826 200.188 17.9676H200.221V5.60425C200.221 5.03816 200.232 4.49472 200.254 3.97392C200.277 3.45312 200.299 3.04554 200.321 2.75118C199.965 2.77382 199.542 2.79646 199.051 2.81911C198.561 2.81911 198.16 2.83043 197.848 2.85307V0.611372H205V2.47945C204.398 2.5021 203.919 2.61531 203.563 2.81911C203.229 3.00025 202.995 3.32858 202.861 3.8041C202.727 4.27961 202.661 4.95891 202.661 5.842L202.627 24.7945H200.221Z" fill="#FCCA03"/>
<path d="M118.947 0.126158L113.757 8.35626L118.161 8.44094L114.075 14.6228L120.593 14.7498L112.943 25.6L132.04 9.43067L124.549 9.28777L130.824 0.359035L118.947 0.126158Z" fill="#FCCA03"/>
</svg>
